<mxfile host="app.diagrams.net" agent="Mozilla/5.0 (Windows NT 10.0; Win64; x64) AppleWebKit/537.36 (KHTML, like Gecko) Chrome/128.0.0.0 Safari/537.36" version="24.7.8">
  <diagram name="Page-1" id="4edBDtYzTanKhB3rlNLP">
    <mxGraphModel dx="2074" dy="1098" grid="1" gridSize="10" guides="1" tooltips="1" connect="1" arrows="1" fold="1" page="1" pageScale="1" pageWidth="850" pageHeight="1100" math="0" shadow="0">
      <root>
        <mxCell id="0" />
        <mxCell id="1" parent="0" />
        <mxCell id="OMmhInObFo5pcyylUP07-7" value="DEV" style="rounded=1;whiteSpace=wrap;html=1;labelPosition=center;verticalLabelPosition=top;align=center;verticalAlign=bottom;fillColor=#f5f5f5;strokeColor=#666666;dashed=1;fontColor=#333333;" vertex="1" parent="1">
          <mxGeometry x="22.91" y="250" width="517.09" height="170" as="geometry" />
        </mxCell>
        <mxCell id="OMmhInObFo5pcyylUP07-1" value="" style="shape=image;verticalLabelPosition=bottom;verticalAlign=top;imageAspect=0;aspect=fixed;image=data:image/png,iVBORw0KGgoAAAANSUhEUgAAAS0AAAFfCAYAAAFsDqqyAAAACXBIWXMAAAsSAAALEgHS3X78AAAen0lEQVR4nO2d3W3cONuGqQ97Pk4F8RZgxKnATgXrbWAS69jA5q0gSQXJAj6e2GpgsxXErmAduIBNKkimAn2gQ3llmpJIiZTI4XUBgzgz+uE8c+vmP1nUdS1i5P+iTBUJG4G3hBVl9aMoK2+C9ZIwmSghxEr97SVxkxPWTlTrvcmJm5SwdqLqzbqQL2+Jkz425SVOL2v9fNN7ri8M1pX0E6aEPgmXB8IqYc3TN+VJa861vcag+HVL6DpudX7bXGi7PTvY60vc0LXEUMRsE6WnsesDF58b+ik/WSbGO70JqzfrV0KIS5tvuD07kNH4Vf1rxOWntDLYoqwuhBAvbS7oI1E/D7LMKsTp5UWI7KvrRZbkyu4mzPS0xlBQvNAT4pr1dF57qvjbVtJmrK00TP4p2ybcem9SooQv8bcT5yNRwsdPGQp8zBUS5goJc+UX2+NlFtPlUUVZXTV/15v1cev/N/Vm/bo5t31cc2znDacU8sTp5aHpc3F6+XZqO8bgT6lnxq1MWtagPnSc9saUsbvgrLHWz9lZTRNCvGuOa5qnXBNno7F3pm+vbnbcoT0ZsTdCiGshxJF679olYeSVrpAwV9CYKyTMFZ99SXVRVjdRJayVMzzzlbgQTQReEje1ieBBY1wrz5yeOPqSHMHHXHHpS5rW3lVWey4PhG1fko/GuO8uT6tTZWSoL6nVn/QIVysZ6kuyTpTp7ymJ8y7+vi4bjd6E2XQLunW12F3rUrVCdjIYMV9DFlwS9fPGAfqBfPRHkSW5spsJU9lMfH1JKpvp6ku6mHJhH31JpgvYWUIPPvqSdNOdnCjhsS+pSZyXRAnaLkZAwlwhYa7sbl+S3j/URvUryd6T/XqzPtH7nHpv6KONQpxeHtsWKG0LnE7VN9v6pWrEq/W/XRj8KTsqIL/bnjO2AjOYMO3bPm/9v1CfvxVCXHWc81wI8c+YBJJXukLCXIlWY7ES7S8ZKwTMkSgDpqaEeevG80lUHmaaESaE+FJv1ocLJekRUQSsI1A6UQRu0YB1BaopTnYUxhcNnHW9LRAPgqWXuzsC92zJBFMOc4RihSMEzJGdDZjsQwpyXZ8epud6viazOKZhr+nXUnjNVb0EbKh44Mrq/FZ+6cPt2UFny+lAeoIVRyYFLECgjIlxGL2hp8974EYFTLWJ/6G/P/UR7BtvMzZoojtw/6s3666ZEd3Xmqgw71MWDUH7sj07GKWIEN3gvjwsyFzPCekJMl5A+KoaqYS86grcwngbLiCoGrlDSd8RAubI4gELVYUJxWIeZqjCdOaqeq63VO4rImhx7S2OhCwejCWWNn2b4siigWqIrdfIFLgoAtUQZTmsGVocU6AaKLg6QjnMEQLmCAFzhIA5QsAcIWCOeB9b0V4bx+bYoQV7ej6/VmPuH31mc82htHXhJWB9iTNVnNWg8Detz5svLycWfO74QnJlpLcdt3n0mT5L1leFfXLA1Bf+td6svwotQHpCZaBaqpLBOXL4IvvqnDvqzfpKPKyoT16O1gZfHtY5S1KpqeHNhHt8lUFqXvr1ZTVqlmafqXOnW9Nijns+2+/5bC/0/X2+qEs6QrHCEQLmCAFzBA9zAHU5QLAcIFgOECwHCJYDBMuBWOdERlmeiS5YvvYUCUFUwepa5z0WoglWV2BiClgUwbJZ2WW+1HQTw4hCY6eEzXFzs2iw+gIVY8AWC5aNomILWDQG39UJYXh/O0+KHrNYsFxWvWp9vq0368VGTdP45wB1QwcIlgMEywGC5QDBcoBgOeA9WGOXME0hDV6DNXX/wNjT4HWXK1/X8onPdPneeeueicsjHKsVS5wJWfkOsmXBhJVKHq184nOVkkW35PYcqH3TEjF9K5f0EUJho4MV4Jf7d8K5RnwHbFSwOm74ZGwiAvPcMv2DjApWh4K+T5yh7z3YRVkdNguxtxn7BIx+DH0HbHt2IM39m+H9sQbvNVAi4AY+T+rN+sfYa67Ob+UiZ6OXNA4RKOFxRSXvAZuQliCBEgE2Omoz1cOcCRkoEWCBxvbFFulcCLliideKdAy9MD72SumC3h0HaPxzgGA5QLAcIFgOECwHklkeTxU4FyWGwWyDJf2mZM5gtp90BkyvwjCY7SePAtZV11uKKAaztbgPWOhK8RgWr+50PFYv5Moi+ptLBkpEtDLlYCKWDpSIxbMcxpQuSoqjlRcjqhK8zTj4JYmuutM3w2JpaPxzgIq0AwTLAYLlAMFygGA5QLAcIFgOECwHCJYDBMsBguUAwXKAYDkQZBl0l+aVoqw6N8hVK33f7dFo+qx9T/Xn3WLZQ9e0TZvOYvvxt4J6NHDoftcxRVnta5MN/i3K6p3FNUexWLAa9HXdm7Xj+45r8W/HZ/criLss+D+Ej7XijbsNi/+WJW8vd343gllfUCzGVlETPgz+DxWEwjD14418v/XZ3bZ/7aZj20A1s1Pb3Wbt3e/UK+jgkamzwu72fm7Gu9eb9U3rM33U8I16f6zBvmi92tctWlNZ/tEW8ffK1MdwtmFA7V0HDJ/JH6vZCORN27N8MvUxfN3z2WnHFxu1l76Jjp7sYKsgTVKWfLSKsuqae3hRlNVHm51VbLem0a5v3K0z6Ph7T3tKdO5b0bfnhK+9KNjTIkKoGzpAsBwgWA4QLAcIlgMEywGC5QDlLAgGTyIEA3FBMBAXBANxQTAQFwQDcTlQlNWnZBIbATRFWFCUlb5c75d6s158pY7YQVw9GESlg8h6QFwGLESlg8gMIK4WI0Slg8haIC4/otLJXmQid3G5iMowpt+GrEWWpbjGispwHUTWQ3bishWE4xw4m2suuvPsEmSbLXYJYtLuIR0zHnITVUP2BfoQ0/7UNbMVVUP24oJw0LcIwUBcEAzEBcFAXBAMxAXBWHypJBuaFvVUVgkKhdpR5XsqLf5RN0V0ddPkJrKWqHSiFlmU4rLt+9t1kfWISidKkUUlLl8dyrtGqh3kseynFa2oVue3nStKCiHebc8Ogq3Dp5OayBYVV+Si+iqEeGp5+PX27GD0ar2upCKyRcQVe/a3Or+Vq48+czztcnt28Ghp6ZDELrJZxZVKmWp1fjsqKNuzg0XSHKvI5m5EtZ5UarvTdyC+jLjs5RIJdVys+sbiGG8slS1eCCFeWh7+pFlIe04cs8Y/t2cHfUsze8dxD+/LerOeNcsWERToUxCZ/FE+dnz8Ynt24G3tbhtSEFVDLE0R0YtsaVISVUNsjaiITCNFUTXE2v1jI7Isxqhb1gSjElVD7B3XJpFlOfGhQ2RRiqohiQkaSmQnuc+mEf+JLGpRNTD7B4LBSFQIBuKCYCAuCAbigmAgLghGErN/QqGNUffS4t9uUc9+tlKmi7/1TXwYJbK+bppcRcbib91Yicyl7y+7KXGZOtfkDvKUO5TnIvcFd51FhqjsofvHXWQ2ZC2qBsTVwoPIEFULxGVghMgQlQHE1YOFyBBVD4jLAoPIEJUFiMuBoqxe1Zv1RTIJXhjEBcGg4xqCgbggGIgLgoG4IBiIC4KBuCAYiAuCgbggGIgLgoG4IBiIC4KBuCAYiAuCEf2k2PZUMF9Ts9Qki716s77S7+FCk56irOQWLW8sT72uN+v73TaKsjoRQvzVd0LrPpPSOTe5zrhuZu/cBd0U/KKspAA+q/8+EMQA7+rN2mo/IE0sv9eb9Sft8wdbxHSJJMQD6IOoxKVGfEpXkfMEL2wH5slBfEKIZmSo/EE+1Ju1cUF/5TLRoQtL/HxvP8a02rK4uAzZwt9qp4fXRVl1rf8uz9N3E7sWQshsTm428LIoq7s3W1lK24maa7Sdw8WdfCHTfKSl5X/1Zv1h5nQEYelNDtoTTI3j0k2WrwnrRVN2GjpPvX/V/KB9WYhLtmhb5urJ1vrOH9yvh2zRzP0T6jjh4d6xTMJSvGjEId3RlO0EwrrM1foO8vgH57QegmdSPCmuM7F0U8S9MBw3SPpmcUxbrLNuoeKDBbJo7ywqLu0J/0cVzO+Qyxx1Vb3bBV15jC7MoqxuWlPB/u5arUaV91yF7QVZeVFpb14n7XRp3/3XudPn5TtGsvePaavfu80M+spIA+tsdZaTOvZ9/LPerF+3jvFe5jJdq/39DJza1JhjLXMxtQyCQfcPBANxQTAQFwQDcUEwEBcEA3FBMBAXBANxQTBoRIUg4FoQBIQFQUBYEASEBUFAWBAEhAVBQFgQBIQFQUBYEASEBUFAWBAEhAVBQFiWyHmKaloaWICwLGitTfEdcdmBsAYw7KiPuCxAWD0YRNWAuAZAWB30iKoBcfWAsAxYiKoBcXWAsDQcRNWAuAwgrBYjRNWAuDQQlmKCqBoQVwuE5UdUDYhLkb2wPIqqIXtxidyF5SiqS/WyIXtxZSssV1HJlaDVatCIy4IshTVGVM1/EJcd2QlriqgaENcwWQnLh6gaEFc/uTmW7drvvaJqcBRX0hs2uZKVsNTa6qcDh1mJqnVNG3E979rNbFfJrow1IC4nUbWu2Seu7EQlcq0VdohrlKha1zSJK0tRiZzbsTRxTRJV65ptcWUrqjvkin45v8Tp5aHv7y9OL/dzjytLRUIQsu+EhjAgLAgCwoIgICwIAsKCICAsCALCgiAgLAgCwoIgICwIQhLCKsoqq0FyfaQyEjV6YanhxP8WZXURQXIWpSirm1SGOUctLG2M+sucxaVE9Uz9N3pxRSusjokPWYpLE1VD1OKKUlgDs2myEleHqBqiFVd0wrKcopWFuAZE1RCluKISVoAFOlLHdmhzdOKKRlg+J5PuCilPio1iaHIKolqd3x43f2/PDq7mvLfK9l9aHv6k3qx/BE7SIIsLK2ZRrc5vpQN87/h4uz07mM0hUhPXosKKXFS2aXu+PTuYZZpXSuJarIyVgFPZpm22ykZKZa5FhJVAmaor+zOyOr/9OlfCUhHX7MLa0drf0zlvloK4ZhVWarW/mIldXLMJa9fbqZYQZMzimtOxbEW1TbHxc+62rQbHWDmVHacwm7DqzbqwPHSl+sgWYSmBjKUoK+smBYffYDKzlrEcvtizJcUl9eV4/HWgdPSiRLWyOXZOUYmlGkiLsrK96Zd6s7ZdN9Qrq/Nb68Bszw5m/dFE5KISS7VjJeJczy2PexI4HY+IXVQigi6dFJzra0c71fX27GD2mmAKohKRdEJHL64G2aSwZOE+FVGJiIbNJCOupUhJVCKWgX4J1RYXITVRiZhGkCIuMymKSsQ25h1xPSRVUYkYZ+k4BGjnx7wLIV7bHBSbqESs8wotApXF4vw2e//EKCoR80zonoBlteNDn7hiFZWIfe0GQ+Cy3EbEJK6YRSVSWG2mFcCs96Zpiyt2UYlYGkhh92BFPwgCwoIgICwIAsKCICAsCALCgiAgLAgCwoIgICwIAsKCICAsCEL2wgqxrHdRVh98XzM1shaWGt780ucwZzWc+I/c9/7JVlja4vxextBrY9Sz3vsnS2F17PgwSVwdEx+yFVd2whrYRmSUuAZm02QprqyEZbk3jZO4LKdoZSeu7EaQ+pzOn/K8v9BklxX6mhSLqPrJsvA+VVyIaphsmxvGigtR2ZH9LB2XMpcQYh9R2ZG9sISbuKzIXVQi9y6dBp9CQFQ/QVgKH4JAVP+BsFpMEQaiegjC0hgjEET1GIRlwEUoiMoMwurARjCIqhuE1UOfcBBVPwhrAJOAENUwCMuCtpAQlR20vEMQcCwIAsKCICAsCALCgiAgLAgCwoIgICwIAsKCICAsCALCgiAgLAgCwoIgICwIAsKCICAsCALCgiAgLAgCwoIgICwIAsKCICAsCALCgiAgLAgCwoIgICwIAsKCICAsCALCgiD8EnNYi7J6K4R4IwKu8lKUldwvZ8yOqDf1Zv1aXePK9qR6sz42pEGuHy83cTpSb22FEG/rzfqDdpz1fYbuGZqohRWKoqxkoH/Um7XccWKv9YOOZfT5HTtdyP+/L8rqvRDiXb1Zv1XvT03nbOS4X6H8kT6PdCnfabHZPuXNTMnxSo6OddL+T71Zy+zlUTbb3q0ixGK3Kvu7F5V+nnJV+QCc9l17bDpDk6OwhjbCnIvXrfs81+/ZJfhUiEZYRVmdqGDvq4LxicVpzZP/Vp0n+aQXeiOld5PN1IlCWIZNkp6q9744nic5UoXev9viNBx7tHA2ctUqjP+TsjuZWLzwbvjB36mX6Mu2Os77u/X/37RNLLfTU+uPVk3v/vsUZfVVOXDyLOpYRVm1yxn6HsxvZaClexnOa7fnnNab9YX2eSM6uYnlXr1Zy6aFPe2z6xDtOz1b1L3TxaQK5h9b/5ff9d+irOTfl/Vm/cp3+uZiacd63/zRsbF3187v9+05uqgUT1p/j2pUnAOZdpUFm9z0pXKxJMtiqdcKr01vSodST71YoBb4ouP9r10ntNz0RD1M7batJMtfyQlLte80ROdGqplg7LmfZE+AzL6FEN+b9+V3nnLdJUix5f1HBGkIinTcVgVGMntf31SSE5bq32uwautKlLZDJfcwxS6soYKrsfxUlFW7NvWn3yT5QaZR9RV2cV8pSaTB9wFLC+ve7vVqelFWMrC/WZz34MdR5ZP7KnwztMXAkXbO3Mg0rlTN70r7DjemZpaUWLTwLtt1irK67703tAFdm4aKqPNeq9rTqqft6Pe++2vneal59aTljlYL/7eWeI66zkt1t7HFs8KewP2vrwFTVdH7srlfVS3r0fumg+d2rXqz3u9pmpB8S3kLu6i2lZtSrdYG79kcL8tve7FU41VXTtMBn3zNl/0KIQhMpoAgICwIAsKCICAsCALCgiAgLAgCwoIgICwIAsKCICAsCALCgiAgLAgCwoIgICwIAsKCICAsCAID/QAgKcgNASApMC0ASApMCwCSAtMCgKTAtAAgKTAtAEgKTAsAkgLTAoCkwLQAICkwLQBICkwLAJIC0wKApEh962iIDLWV0ZXawO2L3ER2F7YQgnhglQfwgmZWOpgXeAPTgkkMmJUO5gWTwbRgFI5mpYN5wWgwLXBiolnpYF7gDKYFVng2Kx3MC6zBtKCXwGalg3nBIJgWGJnZrHQwL+gE04IHLGxWOpgXPALTgjsiMysdzAvuwbQyJ6BZfRNCPPV8TcwLMK1cCWhWl/Vm/ar5T1FWF0KIl57vgXllDKaVGXOZlQ7mBb7AtDJhKbPSwbxgKpjWjhOLWelgXjAWTGuHKcrqR2xmpRPIvK7rzfrY8zUhEjCtHacoK2kwHz18S69mpePJvLaqpHXjP4UQC5hWJkwwr6BmpTPSvDCrjMC0MsPBvGY1Kx1L88KsMgTTypQe81rUrHQ6zAuzyhhMK3Na5hWVWeko8zrBrADTAoCkYAsxAEgKTAsAkgLTAoCkwLQAICkwLQBICkwLAJIC0wKApMC0ACApMC0ASApMCwCSAtMCgKT4hZ/LD61ljT/FPPEY5qMoqz2lCcEy0P5gwvREetZgj3rVBAhHy6yeaTdhDXsPYFojcdgwAvPKhB6z0sG8JoBpOTJhdxvMa0dxMCsdzGsEmJYlHrfiwrx2hAlmpYN5OYBpDRBw38DTerO+8J5gmIWirF4LId57vhfmZQGm1UGsm5xCXLDp7PxgWhqYFYwB85oPTEuBWY1ndX67L4R4pV5Pey4kH0L5cF9szw528kHEvMKTvWlhVuNYnd/KuH0aMKkh7h7GXTQwzCsc2ZoWZjUOZVa+4yb3MdzHvKzJ2ryyMy3Majyr89sPQog/At7idHt2sJM9qpiXP7IxLcxqGqvz27dCiDcz3Or37dnBpxnuswiY13R23rQwq+mszm/lIMrvM93u2/bsYH+mey0G5jWenTUtzMofq/PbYyHE5xlv+WJ7dnBlcVzyYF7u7JxpYVb+WcC0nm/PDm5mvN/iYF727NwigPVmfaO64n1zqOaaZcfMpZ5vGRqWzGhPAlz6ZhdLWzvdpkXu5Y/V+W2IuXYmcqoaUisYQRa9h5iXH2YwriwMC7OaRlbjtDCv6aiexK+eH7gv27ODw6W+01xgVn7IckQ85jUdZV6y7fBowsX+3J4dvI7lO4UCs/JL1nMPMS9/rM5vT1Rj8nHHfMQv6sG9yKWhHbMKQ/YTpgXmBZ7BrMKCabXAvGAKmNU8YFoGMC9wAbOaF0yrB8wL+sCslgHTsiCAeW2VcWU18nuXKMpKdjr85fkrYVYWYFoOeDAvzGrHKMpKmszHid8Ks3IA0xrBCPPCrHackeaFWY0A05qAhXlhVplhaV6Y1QQwLQ8YzAuzypwO88KsPIBpeaQoK7mG+gVmBQ3KvA7rzXrnpyvNBaYFAEmxc4sAAsBug2kBQFJgWgCQFJgWACQFpgUASYFpAUBSYFoAkBSYFgAkBaYFAEmBaQFAUmBaAJAUv/Bz5UtRVntqueBnMS8DrS1rzEoJmcOE6QzRzEonGvMaWIMd88oUTCsjBsxKZzHzctwwAvPKDEwrAxzNSmc285q4uw3mlQmY1g4z0ax0gpmX5624MK8dB9PaYWLft5F9A2EMmFYGxGZemBVMAdPKiKXNC7MCH2BaGTK3eWFW4BNMK2NCmxdmBSHAtCCUeYUAswJMC/4jYvPCrOAeTAseEZF5YVbwCEwLOlnQvDAr6ATTgkFmNC/MCgbBtMCagOaFWYE1mBY449G8MCtwBtOC0UwwL8wKRoNpwWQczAuzgslgWuCNHvPCrMAbmBZ4p2VemBV4B9MCgKRgCzEASApMCwCSAtMCgKTAtAAgKTAtAEgKTAsAkgLTAoCkwLQAICkwLQBICkwLAJIC0wKApMC0ACApMC0ASApMCwCSAtMCgKTAtAAgKTAtAEgKTAsAkgLTAoCkwLQAICkwLQBICkwLAJIC0wKApMC0ACApMC0ASApMCwCSAtMCgKT4hZ9rPEVZvRJCvNIvUG/Wxwl9DYCkwLSmsS+EOEr5C4if5itN9vOMt7zWjb0oq7dCiDdz3EunKCv5O8r7v3S89qU8r96svxquWU9JtCv1Zl3Meb8lwbQywGBKgw9yJnE5EUL8NeES0uReFmUl//6z3qxf+0sddIFp5cHQw3QjhHhhGYlDIcR7w/tfLO7T8MMh6rI0c+FwvNW9irK66ClZ/S2E+CDjUm/WP9Txe0KIE9UcoJeuv6mSWhvbeIqeUq7LNbIB08qD3/q+pXowr2wioUoVJn7Um7XVNRz56vu6qi3SZFidpSUVo4u2gaqSmvzsk+F46zR3xTRQPJMH09pxVNUQHvKo80T8NAmn6p3JrCA8mFYLlXPKasHTgUO/OVSF+u53qKoVvSWhFl9Uw2/nw6JMSl5TVmeedRx21NNQnEN7142pA6Uoqw+0S8UPpjXcvmHi6ZQG3BH3a5Am9JeqTkgDO27aXFoc70KPZmBk/P8w3OKPoqzk+9cqc6B6FiFZm5ZqXJXd1SvDx9IUTjq6s1+pEpnpvL779Q0teCevaTAhed5rVXpq308a2PeirN7Vm/V9I7D6+23r3CuDiaVUmjpWwyFcuOoznHqzvinK6rkQ4p+OQ2S8PmttTV+U2X0yaQLmI/eS1k2H8fzaJ8x6s75rkHUZW9RjWIMGUm/W0iA/dNzvTVFWP9Qxu8jRyJJjbylJGpf8WVQV/aKnKt3wTPWavm+Z2YMMA+Yh22k8qvRiarv6PVBOajKVrUuJRz0g14aPTEMQwC6mcljDoRycqQZonqohDzbIDKMuyupGldphBnIuaZ2Y3gzRI6QEbcrJx5SOPnU0Ih/vaBvMrKWZphTdfq81RuttR0Ynf9uvcmS9qXoPfsm9ejgXhx7vc9Px/qHtWCtwQx+jJUtWhkxopXqUqS4GhlUeZqCnBDTGzLqqk11mBv4xjvOCecjZtIzVQNUzGAJTO8lvarKuC6ZxRN/onndjYhtUV2bDbzAD2ZqW6m37Zvjoo80o8hGrEkgz3Brev1E9WEP32yvKqmt4huvwBZ/V1aRQcfyhhovUrYZ0qxiqMXYfDR9dknHMQ+5tWscdwx6aMTrXKve8USPMj1WDrNP4LPFfu8ieoT1EXusfdb9LVQJsGnObe77quKc0wcOB3k7T6O+VenA/qc9P1DHf1PViakyWPXRTlqy5H1LSMy7vWce4rB8DMwsaGPowI1m3acmHvd6s95RZmDhSpam/VO76siX4yzFrGMnudSHEc/VQ6LxU9/qsXn+pkdv6Q7ZVQzP2hoZnqGkppmESK3W/9y1Te6pKIK5V1iSQZqx+7ycdMWnzTMWlz7Ckbp5gWPOSe0nrjnqzvluBVFURXnWUpr6p3iN91PoT9b51G4ka2HhXRVMGcdIq7Zj4okp8F+pc1+93rEoZHzq+21aVuowL2mn86Hjgp3YEfLUwkjE8Spf6/e6rg6p6/kq912VSW/UbfFLDInwS4nvvLEVdz7rAIgDAJBjyAABJgWkBQFJgWgCQFJgWACQFpgUASYFpAUBSYFoAkBSYFgAkBaYFAEmBaQFAUmBaAJAUmBYAJAWmBQBJgWkBQFJgWgCQFJgWAKSDEOL/AUTuGM5LzgsAAAAAAElFTkSuQmCC;" vertex="1" parent="1">
          <mxGeometry x="329.96999999999997" y="290" width="60.03" height="70" as="geometry" />
        </mxCell>
        <mxCell id="OMmhInObFo5pcyylUP07-21" style="edgeStyle=orthogonalEdgeStyle;rounded=0;orthogonalLoop=1;jettySize=auto;html=1;entryX=0.25;entryY=0;entryDx=0;entryDy=0;fillColor=#ffe6cc;strokeColor=#d79b00;strokeWidth=3;" edge="1" parent="1" source="OMmhInObFo5pcyylUP07-4" target="OMmhInObFo5pcyylUP07-7">
          <mxGeometry relative="1" as="geometry">
            <Array as="points">
              <mxPoint x="770" y="200" />
              <mxPoint x="152" y="200" />
            </Array>
          </mxGeometry>
        </mxCell>
        <mxCell id="OMmhInObFo5pcyylUP07-26" style="edgeStyle=orthogonalEdgeStyle;rounded=0;orthogonalLoop=1;jettySize=auto;html=1;entryX=0.25;entryY=1;entryDx=0;entryDy=0;fillColor=#ffe6cc;strokeColor=#d79b00;strokeWidth=3;" edge="1" parent="1" source="OMmhInObFo5pcyylUP07-4" target="OMmhInObFo5pcyylUP07-15">
          <mxGeometry relative="1" as="geometry">
            <Array as="points">
              <mxPoint x="770" y="700" />
              <mxPoint x="152" y="700" />
            </Array>
          </mxGeometry>
        </mxCell>
        <mxCell id="OMmhInObFo5pcyylUP07-4" value="" style="shape=image;verticalLabelPosition=bottom;verticalAlign=top;imageAspect=0;aspect=fixed;image=data:image/png,iVBORw0KGgoAAAANSUhEUgAAAS0AAAFfCAYAAAFsDqqyAAAACXBIWXMAAAsSAAALEgHS3X78AAASs0lEQVR4nO3d3XHT2hrG8aUz3CtUAKeADNkVkF0BVCCCrjMDuwJCBScXvhaJKsiugKSChHEBsCsgrkBnFJbYQtiOXlmvvN6l/2+GmZAPe3n58WN9WUqqqnIh+k+Qo2JgAzAwKQYmNZ+BpYvlKI3NU1lL8vKo7+9ONjA/qNskL3s91ZMMrBlU/XVVZEmfv9lpYH2CPmRQOw+sp9shf6Q+sPYs9c2Xkw5saEcNGdxkr8pmcJOEXyq08A8iWhkZ632wsTo93DiDrCVJMTApBibFwKQYmBQDkwp2YE+G/mGSl9fuxzLWcfv/3p1z7qj9c7F66WLIP/f2smr+rvn6se9J/s03Y5LF6bbBGXOtNZ6hd771tlmCFWJgUmRMioFJMTApBiY1j4GNuf2Mp1Jqyn1Jldp2/qEkAxplYD33Jf38nWA2pyd5edF8LV0vUB1YVWQnzrlLN+DpVN+XNHRwvQeWLpbDVvU7g+trp/XKAYM76fv79ldGxt6P5NiXNDIGJsXApBiYFAOTYmBSce1LSvKyWba6rorszHX2JdX7j/z/r6oiOx80soH7kc66+5E27Tfa274kjb0iboyMtVfR1pl8X1JrjefL0NvYevsswQoxMKlgMxaqYJ/JUDFhQkyYEBMmxIQJMWFCTJhQ0BOWLpb36WJ5FsBQfgo9Yalz7kMA4/iJl6TQZPsCpzT0g5x9RJWweqL8Bp7b1vdGXVmOImHtRLVpbEfc24Q1O6+37XB+zJQT1TD9kqyK7G7dARxjvwzb1CYsXSx7nwBhF/WBJT5Rv0yc9Pi0vlQmzB/2c6txzMgm2yZuzPuJbrGiOZSp3j/jvx5VtAuuGpPlWNKXU9kJMmV3DTV0cYa9RkK8JIWYMCEmTIgJE2LChJgwISZMiAkTYsKEmDAhJkyICROadANikpdnm/ZkNzsutmwhvfHH2q/7+dOqyO5HHewGe9ni2t2rk+Tl63oi6u93J27dHqDOKVrrHSHf6y+nGHsQm6irIrtK8rL373dTprlbrSuICfMT0PujCFNOUBcbEIV4lxRiwoSYMCEmTIjSFyBdAkyWAJMlwGQJMFkCTJYAkyXAZAkwWQJMlgCTJcBkCTBZAkyWAJMlwGQJBDtZ6WJ5ENqx+iEnq94LXU/at/0P5QcLL8NnAYzhAZ0lwGQJRDtZSV4ejH2bUU6WPwDl+9gTFt1kdQ5VGnXCYjsJx7rlstdj3X40k7Vhot5WRbb1nLkSUUzWFBPl9nVEYGs15nJ1erjTh8unmigXQLLe7PLHU06Ui3TR4Urrhq2f/2bdAbqjL181zCdrygnTPFHQ4EteSU01YVonCaqL93O6WF73+PVRTDFhURX8hgkbds2NNaJ7N+xM2OWYJwmKcqtDc86usc+mxGmnBNhSKsBkCTBZAqN/wsIvW71UHveuPq5OD8VnJ9dIVugT5STXnG3jszsCdJYAkyXAZAkwWQJMlgCTJcBkCTBZAkyWAJMlwGQJMFkCTJYAkyXAZAkwWQJMlgCTJcBkCTBZAkyWAJMlwGQJMFkCTJbA1KdB7x5jelYV2fWWn//kT4He/vl9VWSjfYipj6k/jtI9DuKzP5P3H/6aro8dJ/HLz7edJl3DPj6787Eqsp9HsNRX0vRXCk4654GvNk1C9/cmGPODvXdWczjjLg86yctJjrk3XfD+KgSu3XuaTF4ot5PCP6a635Am6+++v7ivKxDs/WXYekebdDFgiH0k60OSl79ccmaf16qQ4DBJAVZ3BJgsASZLgMkSYLIEmCwBJkuAyRJgoRRqeCVCDeGCGsIFNYQLaggX1BAuqCFcUEO4oIZwQQ3hghrCBTWEC2oIF9QQLqghXFBDuKDG5Kfu9m3N9cPfrk4PVa7/ZhnNNY5PMTyIsREuqCFcUEO4oIYFekOSvDzyZ/6pPa2K7D7k0RMuAzqhanz35+QKNmSEK2AbQtX1ELIQz95CuALUM1SNt1WRBbmNjXAFJJZQNWYXrnSxvHLOvRp6oVcNsYWqMatzRazZbeNWp4fiZZWxbifWUDV4W9yDJC+fO+e+9rznv6oiO7f4ONmIugdVkX3za3eXPe79f/WJT5O8PLD2OAnXHtVn+BaE7Lu1kBGuAMQaMlPLXOliWW+JTpv/D1mIDpm/VsGJv8DDm0eGGvwWejPNlS6Wx+1g+e9Nch2DqQ1pshAfB2+LAesZsstQT9zPpggDNrxdXjaX/AkV4TKkCZmVEfO2CDWEC2oIF9SY2XHdOpoBw0x+FIiJcK07CgHDTLnh2crb4tMAxmDe1Hs0uPYP1LBADzWEC2oIF9QQLqghXFBDuKCGcEEN4YIawgU1hAtqCBfUEC6oIVxQQ7ighnBBDeGCGsIFNYQLaggX1BAuqCFcUEO4oIZwQQ3hghrCBTXRnvwtycv6pBsfev76P1WRPV9zG0M+jn5TFVl9/lbJ3wd/7cQh5nJmwY9Vkf12hhd/uu1vzrlnrSD8fKLXnWu0HRjJuUg33NbDfYd8WbtdzPptsQ5RVWQHnSe1fqInOTWkb8svzf+TvDye4n6nwjKX1wnYpwnv+kVrDFGd+pwT7k4kyct2cJ77t8O2/8b2mAnXdF527unGOfe+KrK7WB8w4fKGLqj3FdvCeh+zDZdfeL7ovj3NMQRa5hKuD0lebtrmVa+tHce4nWnfOG0l1LApAmoIF9QQLqghXFBDuKCGcEEN4YIawgU1bESFCloLKggWVBAsqCBYUEGwoIJgQQXBggqCBRUECyoIFlQQLKggWFBBsKCCYEEFwYIKggUVBAsqCBZUECyoIFhQQbCggmBBBcGCCoIFFQQLKggWVBAsqCBYUEGwoIJgQQXBggqCBRUECyq4WtgA6WJ57px7V1+TenV6+Ns1qcGpIsXSxfK3i6GvTg+5ulgHb4Vyfa+wP2sECyoIFlQQLKggWFBBsKCCYEEFwYIKgmVMkpfXFkZMsAxJ8vLeOfcyycu70EdNsIzwoUr9aF+EHi6CZUAnVI2gw0WwArchVI1gw0WwAvZIqBpBhotgBapnqB5URXYU2qMgWAEShirIY8EIVmBiCJUjWGGJJVSOYIUjplC5uX2YIl0sj51zn+sPQTjnjlanh/cBDCu6ULk5NVa6WD73oao9c8593/OQHsQYKjezt8KL7jd8g+1NrKFyLGPtT8yhcgRrP2IPlSNY+1EV2UHfO7ZwiMw6BGtPBE0U/CEy6xCsPYo5XARrz2INF8EKQIzhIliBiC1c5oJVb9T0W9GjE1O4zASrDlO6WFZ+t8zXdLE0uRr+mFjCZamxvnb+/2JP41AXQ7hYxgqU9XARrID1DRfHvEPssXBxzDsG2xQejnnHzroh4ph3jKYJk4VDaQiWMRzzjlkjWFBBsKCCYEEFwYIKggUVBAsqTFyvMF0sD0L5SLxRk1+w00pjEardPPMHSU4m+GDt+/wKGMZCY30LYAwQCj5Yq9PDOlhfAhiKdZdTjp+LjUMFmxuggmBBBcGCCoIFFQQLKggWVBAsqCBYUEGwoIJgQQXBggqCBRUECyoIFlQQLKggWFBBsKCCYEEFwYIKggUVBAsqCBZUECyoIFhQQbCggmBBBcGCCoIFFQQLKggWVBAsqCBYUEGwoIJgQQXBggqCBRUECyoIFlQQLKggWFBBsKCCYEEFwYIKggUVBAsqCBZUECyoIFhQQbCggmBBBcGCiiexTmuSl9eP/Mp1VWRnO/z9WlWRHfu/P3HOnWy6b3//g+7DgmiD5Zx7+djPk7z84L9+WxXZhfDvH/N8y23U3/+Q5GX99d9Vkb3e8b6Cw1vhD5+SvLzf032/2uN9q4m5sX6qiixZ933/dvXJ/zetn+CqyA7c9r+p/Jc3zdteDx+7b7tr7vs4prfGWTdW/fbXCVDqn/BJ7rsOXOtb3bdi03gr/OHP1teftv3imDot9myq+50CwfrxBEe7drYvBOtfN81XSV5u3AwxpiQv37du7p8p7nMqBOtf7dbqu1A+WJKX9eaI/7X+fpJlu6nMYq0wACf1Wl9rGN3tW6vY3o4J1np3I9/esy0L51+qIjsa+f72jmD9q728c6V8Xyvn3Pm2XUrWEax/pc1XCm9Lv20gjR0L77/vcF7tcSjRmH2wkry8aC9MN7t0sJtZvhUmeXnkV+/fdX7054Y/gdAsgtXacbzNH1WRjb02OFssvDv3V1Vk5wGMIypJVfV5MQMys194hw6CBRUECyoIFlQQLKggWFBBsKCCYEEFwYIKggUVBAsqCBZUECyoIFhQQbCggmBBBcGCCo4gBWAK74YATKG0AJhCaQEwhdICYAqlBcAUSguAKZQWAFMoLQCmUFoATKG0AJhCaQEwhdICYAqlBcAUSguAKZQWAFMoLQCmUFoATKG0AJhCaQEwhdICYAqlBcAUSguAKZQWAFMoLQCmUFoATKG0AJhCaQEwhdICYAqlBcAUSguAKZQWAFMoLQCmUFqYXLpYHqWL5XNmHkMkVVUxcVCVLpYHzrlr59yLDfdzuTo9POFZQB8saWEK37YUVu1Nulhe8UygD0oLU0h73Mcrngn0QWkBMIXSAmAKpQXAFEoLgCmUFgBTKC0AplBaAEx5wtMF6Ejy8sh/EqA+Tu2Lc+64KrJ7pns3lBYwsk5ZNepPBHxP8pLy2hGlBYxkQ1l1UV47orSAHfUsqy7KayBKCxhoYFl1UV5ClBYgNFJZddXl9do5d8HzsR2lBfSkVFa1t1WRUVY9UVrAIyirsFBawAaUVZgoLaCDsgobpQV4lJUNlFak0sWyvlDEpw2P7mH3+ur0kN3rlJU5lFaE0sXy3Dn3bssjezg2KF0sn865uCgrmyitOB31fFTNi3ZWKCvbKC3MBmUVB86nhTl5r1BY9fZBrtk4IUoLs1EV2UlVZEl9ResRH3Pz2cG7JC8PSJM+SguzQ3nZRmlhtigvmygtzB7lZQulBXiUlw2UFtBBeYWN47SUpItlfUxQfWT6y8491C+E93yEJnx1eTnnTpK8rI/BejPSgDlT6Y5Y0lKQLpb1cTu3awrL+fB/958NhAEseYWF0hqZX8J61eNWKS1jKK8wUFrjI3iRUyyv87nPbR9s0wIGGnGb16W/LfRAaQE72qG8KKsBKC1gJILyoqx2QGkBI9tSXpTVCCgtQEmrvE4439Z42HsIKKOwxkVpATCF0gJgCqUFwBRKC4AplBYAUygtAKZQWgBMSaqq4hkbQbpYPnfO3SlcVw+Q+rI6Pex7lXFzKK0R+HNo3Zp/IIjJanV6GOVpklg9HAfn0EJool3ip7RGsDo9vHbO3Zh/IIjJx1ifTVYPR5QulvUS13vn3Gt/JkpgSvUb58Xq9DDqzzpSWgBMYfUQgCmUFgBTKC0AplBaAEyhtACYQmkBMIXSAmAKpQXAFEoLgCmUFgBTKC0AplBaAEyhtACYQmkBMIXSAmAKpQXAFEoLgCmUFgBTKC0AplBaAEyhtACYQmkBMIXSAmAKpQXAFEoLgCmUFgBTKC0AplBaAEyhtACYQmkBMIXSAmAKpQXAFEoLgCmUFgBTKC0AplBaAEyhtACYQmkBMIXSAmAKpQXAFEoLgCmUFgBTKC0AplBaAEyhtACYQmkBMIXSAmAKpQXAFEoLgCmUFgBTKC0Apjzh6bIlycsz59yHEQf9t3Puqiqyi75/kORlNeGk3VRFdty5/zHmYFU/bufceVVkdzveFiZEaeFV/S/Jy09+Jm6cc6+rIruPfGZS59yb+l+Sl86X2DEFFj5KKx6Xzrk+S0tH/t9r/8Lteumc+57k5bYX8Z+CWfu85ntfnHPve/69pDw/VkV2tu4HSV42j/vEP8auei5uk7z8bckOYaG04vGtKrLrHo/ml99J8vLAryZ1X8gbX8Q976e5/XXfvpfcxhh8+d41xe5L7HbNTb9M8vKiKrKTKceH/tgQP3P1aqAvpad+CairfhF/i22WfIk93fDjNxMPBwKUFh748jryG+a7niV5eRXbTPntdjfrfpbkJauIgaK08IuqyF5vmJFXkb6Q123fEq0CY1qUFtb5uOH70ZRWkpfPk7zctJH/cuLhQIAN8ZAwXVp1Ufm9lu+2/NoNG+HDRmkhJh+SvBx60CnHaRlBaWGdTUtUsW3n+cc5dyb5NAD2j9LCL/zG9rUbp+uPvAQ+WxsPLkU82BCPn/w2n3VHsNfezuCjPTCA0sKD+ihw59zXDbPxF6tQCAWrhzPmVwXrVb4XG2aBjdMIDqUVj132nHXVZXVSFVl0R8HDPkoLjZU/txQbshE0Ssueb5s+Lydw7W/nuioy7Q9Drxvrrqubm+Ygug9243dJVU15EkoA2A17DwGYQmkBMIXSAmAKpQXAFEoLgCmUFgBTKC0AplBaAEyhtACYQmkBMIXSAmAKpQXAFEoLgCmUFgBTKC0AplBaAOxwzv0fBLmIuV9uQ7kAAAAASUVORK5CYII=;" vertex="1" parent="1">
          <mxGeometry x="720" y="380" width="102.91" height="120" as="geometry" />
        </mxCell>
        <mxCell id="OMmhInObFo5pcyylUP07-5" value="" style="shape=image;verticalLabelPosition=bottom;verticalAlign=top;imageAspect=0;aspect=fixed;image=data:image/png,iVBORw0KGgoAAAANSUhEUgAAAS0AAAFfCAYAAAFsDqqyAAAACXBIWXMAAAsSAAALEgHS3X78AAAen0lEQVR4nO2d3W3cONuGqQ97Pk4F8RZgxKnATgXrbWAS69jA5q0gSQXJAj6e2GpgsxXErmAduIBNKkimAn2gQ3llmpJIiZTI4XUBgzgz+uE8c+vmP1nUdS1i5P+iTBUJG4G3hBVl9aMoK2+C9ZIwmSghxEr97SVxkxPWTlTrvcmJm5SwdqLqzbqQL2+Jkz425SVOL2v9fNN7ri8M1pX0E6aEPgmXB8IqYc3TN+VJa861vcag+HVL6DpudX7bXGi7PTvY60vc0LXEUMRsE6WnsesDF58b+ik/WSbGO70JqzfrV0KIS5tvuD07kNH4Vf1rxOWntDLYoqwuhBAvbS7oI1E/D7LMKsTp5UWI7KvrRZbkyu4mzPS0xlBQvNAT4pr1dF57qvjbVtJmrK00TP4p2ybcem9SooQv8bcT5yNRwsdPGQp8zBUS5goJc+UX2+NlFtPlUUVZXTV/15v1cev/N/Vm/bo5t31cc2znDacU8sTp5aHpc3F6+XZqO8bgT6lnxq1MWtagPnSc9saUsbvgrLHWz9lZTRNCvGuOa5qnXBNno7F3pm+vbnbcoT0ZsTdCiGshxJF679olYeSVrpAwV9CYKyTMFZ99SXVRVjdRJayVMzzzlbgQTQReEje1ieBBY1wrz5yeOPqSHMHHXHHpS5rW3lVWey4PhG1fko/GuO8uT6tTZWSoL6nVn/QIVysZ6kuyTpTp7ymJ8y7+vi4bjd6E2XQLunW12F3rUrVCdjIYMV9DFlwS9fPGAfqBfPRHkSW5spsJU9lMfH1JKpvp6ku6mHJhH31JpgvYWUIPPvqSdNOdnCjhsS+pSZyXRAnaLkZAwlwhYa7sbl+S3j/URvUryd6T/XqzPtH7nHpv6KONQpxeHtsWKG0LnE7VN9v6pWrEq/W/XRj8KTsqIL/bnjO2AjOYMO3bPm/9v1CfvxVCXHWc81wI8c+YBJJXukLCXIlWY7ES7S8ZKwTMkSgDpqaEeevG80lUHmaaESaE+FJv1ocLJekRUQSsI1A6UQRu0YB1BaopTnYUxhcNnHW9LRAPgqWXuzsC92zJBFMOc4RihSMEzJGdDZjsQwpyXZ8epud6viazOKZhr+nXUnjNVb0EbKh44Mrq/FZ+6cPt2UFny+lAeoIVRyYFLECgjIlxGL2hp8974EYFTLWJ/6G/P/UR7BtvMzZoojtw/6s3666ZEd3Xmqgw71MWDUH7sj07GKWIEN3gvjwsyFzPCekJMl5A+KoaqYS86grcwngbLiCoGrlDSd8RAubI4gELVYUJxWIeZqjCdOaqeq63VO4rImhx7S2OhCwejCWWNn2b4siigWqIrdfIFLgoAtUQZTmsGVocU6AaKLg6QjnMEQLmCAFzhIA5QsAcIWCOeB9b0V4bx+bYoQV7ej6/VmPuH31mc82htHXhJWB9iTNVnNWg8Detz5svLycWfO74QnJlpLcdt3n0mT5L1leFfXLA1Bf+td6svwotQHpCZaBaqpLBOXL4IvvqnDvqzfpKPKyoT16O1gZfHtY5S1KpqeHNhHt8lUFqXvr1ZTVqlmafqXOnW9Nijns+2+/5bC/0/X2+qEs6QrHCEQLmCAFzBA9zAHU5QLAcIFgOECwHCJYDBMuBWOdERlmeiS5YvvYUCUFUwepa5z0WoglWV2BiClgUwbJZ2WW+1HQTw4hCY6eEzXFzs2iw+gIVY8AWC5aNomILWDQG39UJYXh/O0+KHrNYsFxWvWp9vq0368VGTdP45wB1QwcIlgMEywGC5QDBcoBgOeA9WGOXME0hDV6DNXX/wNjT4HWXK1/X8onPdPneeeueicsjHKsVS5wJWfkOsmXBhJVKHq184nOVkkW35PYcqH3TEjF9K5f0EUJho4MV4Jf7d8K5RnwHbFSwOm74ZGwiAvPcMv2DjApWh4K+T5yh7z3YRVkdNguxtxn7BIx+DH0HbHt2IM39m+H9sQbvNVAi4AY+T+rN+sfYa67Ob+UiZ6OXNA4RKOFxRSXvAZuQliCBEgE2Omoz1cOcCRkoEWCBxvbFFulcCLliideKdAy9MD72SumC3h0HaPxzgGA5QLAcIFgOECwHklkeTxU4FyWGwWyDJf2mZM5gtp90BkyvwjCY7SePAtZV11uKKAaztbgPWOhK8RgWr+50PFYv5Moi+ptLBkpEtDLlYCKWDpSIxbMcxpQuSoqjlRcjqhK8zTj4JYmuutM3w2JpaPxzgIq0AwTLAYLlAMFygGA5QLAcIFgOECwHCJYDBMsBguUAwXKAYDkQZBl0l+aVoqw6N8hVK33f7dFo+qx9T/Xn3WLZQ9e0TZvOYvvxt4J6NHDoftcxRVnta5MN/i3K6p3FNUexWLAa9HXdm7Xj+45r8W/HZ/criLss+D+Ej7XijbsNi/+WJW8vd343gllfUCzGVlETPgz+DxWEwjD14418v/XZ3bZ/7aZj20A1s1Pb3Wbt3e/UK+jgkamzwu72fm7Gu9eb9U3rM33U8I16f6zBvmi92tctWlNZ/tEW8ffK1MdwtmFA7V0HDJ/JH6vZCORN27N8MvUxfN3z2WnHFxu1l76Jjp7sYKsgTVKWfLSKsuqae3hRlNVHm51VbLem0a5v3K0z6Ph7T3tKdO5b0bfnhK+9KNjTIkKoGzpAsBwgWA4QLAcIlgMEywGC5QDlLAgGTyIEA3FBMBAXBANxQTAQFwQDcTlQlNWnZBIbATRFWFCUlb5c75d6s158pY7YQVw9GESlg8h6QFwGLESlg8gMIK4WI0Slg8haIC4/otLJXmQid3G5iMowpt+GrEWWpbjGispwHUTWQ3bishWE4xw4m2suuvPsEmSbLXYJYtLuIR0zHnITVUP2BfoQ0/7UNbMVVUP24oJw0LcIwUBcEAzEBcFAXBAMxAXBWHypJBuaFvVUVgkKhdpR5XsqLf5RN0V0ddPkJrKWqHSiFlmU4rLt+9t1kfWISidKkUUlLl8dyrtGqh3kseynFa2oVue3nStKCiHebc8Ogq3Dp5OayBYVV+Si+iqEeGp5+PX27GD0ar2upCKyRcQVe/a3Or+Vq48+czztcnt28Ghp6ZDELrJZxZVKmWp1fjsqKNuzg0XSHKvI5m5EtZ5UarvTdyC+jLjs5RIJdVys+sbiGG8slS1eCCFeWh7+pFlIe04cs8Y/t2cHfUsze8dxD+/LerOeNcsWERToUxCZ/FE+dnz8Ynt24G3tbhtSEFVDLE0R0YtsaVISVUNsjaiITCNFUTXE2v1jI7Isxqhb1gSjElVD7B3XJpFlOfGhQ2RRiqohiQkaSmQnuc+mEf+JLGpRNTD7B4LBSFQIBuKCYCAuCAbigmAgLghGErN/QqGNUffS4t9uUc9+tlKmi7/1TXwYJbK+bppcRcbib91Yicyl7y+7KXGZOtfkDvKUO5TnIvcFd51FhqjsofvHXWQ2ZC2qBsTVwoPIEFULxGVghMgQlQHE1YOFyBBVD4jLAoPIEJUFiMuBoqxe1Zv1RTIJXhjEBcGg4xqCgbggGIgLgoG4IBiIC4KBuCAYiAuCgbggGIgLgoG4IBiIC4KBuCAYiAuCEf2k2PZUMF9Ts9Qki716s77S7+FCk56irOQWLW8sT72uN+v73TaKsjoRQvzVd0LrPpPSOTe5zrhuZu/cBd0U/KKspAA+q/8+EMQA7+rN2mo/IE0sv9eb9Sft8wdbxHSJJMQD6IOoxKVGfEpXkfMEL2wH5slBfEKIZmSo/EE+1Ju1cUF/5TLRoQtL/HxvP8a02rK4uAzZwt9qp4fXRVl1rf8uz9N3E7sWQshsTm428LIoq7s3W1lK24maa7Sdw8WdfCHTfKSl5X/1Zv1h5nQEYelNDtoTTI3j0k2WrwnrRVN2GjpPvX/V/KB9WYhLtmhb5urJ1vrOH9yvh2zRzP0T6jjh4d6xTMJSvGjEId3RlO0EwrrM1foO8vgH57QegmdSPCmuM7F0U8S9MBw3SPpmcUxbrLNuoeKDBbJo7ywqLu0J/0cVzO+Qyxx1Vb3bBV15jC7MoqxuWlPB/u5arUaV91yF7QVZeVFpb14n7XRp3/3XudPn5TtGsvePaavfu80M+spIA+tsdZaTOvZ9/LPerF+3jvFe5jJdq/39DJza1JhjLXMxtQyCQfcPBANxQTAQFwQDcUEwEBcEA3FBMBAXBANxQTBoRIUg4FoQBIQFQUBYEASEBUFAWBAEhAVBQFgQBIQFQUBYEASEBUFAWBAEhAVBQFiWyHmKaloaWICwLGitTfEdcdmBsAYw7KiPuCxAWD0YRNWAuAZAWB30iKoBcfWAsAxYiKoBcXWAsDQcRNWAuAwgrBYjRNWAuDQQlmKCqBoQVwuE5UdUDYhLkb2wPIqqIXtxidyF5SiqS/WyIXtxZSssV1HJlaDVatCIy4IshTVGVM1/EJcd2QlriqgaENcwWQnLh6gaEFc/uTmW7drvvaJqcBRX0hs2uZKVsNTa6qcDh1mJqnVNG3E979rNbFfJrow1IC4nUbWu2Seu7EQlcq0VdohrlKha1zSJK0tRiZzbsTRxTRJV65ptcWUrqjvkin45v8Tp5aHv7y9OL/dzjytLRUIQsu+EhjAgLAgCwoIgICwIAsKCICAsCALCgiAgLAgCwoIgICwIQhLCKsoqq0FyfaQyEjV6YanhxP8WZXURQXIWpSirm1SGOUctLG2M+sucxaVE9Uz9N3pxRSusjokPWYpLE1VD1OKKUlgDs2myEleHqBqiFVd0wrKcopWFuAZE1RCluKISVoAFOlLHdmhzdOKKRlg+J5PuCilPio1iaHIKolqd3x43f2/PDq7mvLfK9l9aHv6k3qx/BE7SIIsLK2ZRrc5vpQN87/h4uz07mM0hUhPXosKKXFS2aXu+PTuYZZpXSuJarIyVgFPZpm22ykZKZa5FhJVAmaor+zOyOr/9OlfCUhHX7MLa0drf0zlvloK4ZhVWarW/mIldXLMJa9fbqZYQZMzimtOxbEW1TbHxc+62rQbHWDmVHacwm7DqzbqwPHSl+sgWYSmBjKUoK+smBYffYDKzlrEcvtizJcUl9eV4/HWgdPSiRLWyOXZOUYmlGkiLsrK96Zd6s7ZdN9Qrq/Nb68Bszw5m/dFE5KISS7VjJeJczy2PexI4HY+IXVQigi6dFJzra0c71fX27GD2mmAKohKRdEJHL64G2aSwZOE+FVGJiIbNJCOupUhJVCKWgX4J1RYXITVRiZhGkCIuMymKSsQ25h1xPSRVUYkYZ+k4BGjnx7wLIV7bHBSbqESs8wotApXF4vw2e//EKCoR80zonoBlteNDn7hiFZWIfe0GQ+Cy3EbEJK6YRSVSWG2mFcCs96Zpiyt2UYlYGkhh92BFPwgCwoIgICwIAsKCICAsCALCgiAgLAgCwoIgICwIAsKCICAsCEL2wgqxrHdRVh98XzM1shaWGt780ucwZzWc+I/c9/7JVlja4vxextBrY9Sz3vsnS2F17PgwSVwdEx+yFVd2whrYRmSUuAZm02QprqyEZbk3jZO4LKdoZSeu7EaQ+pzOn/K8v9BklxX6mhSLqPrJsvA+VVyIaphsmxvGigtR2ZH9LB2XMpcQYh9R2ZG9sISbuKzIXVQi9y6dBp9CQFQ/QVgKH4JAVP+BsFpMEQaiegjC0hgjEET1GIRlwEUoiMoMwurARjCIqhuE1UOfcBBVPwhrAJOAENUwCMuCtpAQlR20vEMQcCwIAsKCICAsCALCgiAgLAgCwoIgICwIAsKCICAsCALCgiAgLAgCwoIgICwIAsKCICAsCALCgiAgLAgCwoIgICwIAsKCICAsCALCgiAgLAgCwoIgICwIAsKCICAsCALCgiD8EnNYi7J6K4R4IwKu8lKUldwvZ8yOqDf1Zv1aXePK9qR6sz42pEGuHy83cTpSb22FEG/rzfqDdpz1fYbuGZqohRWKoqxkoH/Um7XccWKv9YOOZfT5HTtdyP+/L8rqvRDiXb1Zv1XvT03nbOS4X6H8kT6PdCnfabHZPuXNTMnxSo6OddL+T71Zy+zlUTbb3q0ixGK3Kvu7F5V+nnJV+QCc9l17bDpDk6OwhjbCnIvXrfs81+/ZJfhUiEZYRVmdqGDvq4LxicVpzZP/Vp0n+aQXeiOld5PN1IlCWIZNkp6q9744nic5UoXev9viNBx7tHA2ctUqjP+TsjuZWLzwbvjB36mX6Mu2Os77u/X/37RNLLfTU+uPVk3v/vsUZfVVOXDyLOpYRVm1yxn6HsxvZaClexnOa7fnnNab9YX2eSM6uYnlXr1Zy6aFPe2z6xDtOz1b1L3TxaQK5h9b/5ff9d+irOTfl/Vm/cp3+uZiacd63/zRsbF3187v9+05uqgUT1p/j2pUnAOZdpUFm9z0pXKxJMtiqdcKr01vSodST71YoBb4ouP9r10ntNz0RD1M7batJMtfyQlLte80ROdGqplg7LmfZE+AzL6FEN+b9+V3nnLdJUix5f1HBGkIinTcVgVGMntf31SSE5bq32uwautKlLZDJfcwxS6soYKrsfxUlFW7NvWn3yT5QaZR9RV2cV8pSaTB9wFLC+ve7vVqelFWMrC/WZz34MdR5ZP7KnwztMXAkXbO3Mg0rlTN70r7DjemZpaUWLTwLtt1irK67703tAFdm4aKqPNeq9rTqqft6Pe++2vneal59aTljlYL/7eWeI66zkt1t7HFs8KewP2vrwFTVdH7srlfVS3r0fumg+d2rXqz3u9pmpB8S3kLu6i2lZtSrdYG79kcL8tve7FU41VXTtMBn3zNl/0KIQhMpoAgICwIAsKCICAsCALCgiAgLAgCwoIgICwIAsKCICAsCALCgiAgLAgCwoIgICwIAsKCICAsCAID/QAgKcgNASApMC0ASApMCwCSAtMCgKTAtAAgKTAtAEgKTAsAkgLTAoCkwLQAICkwLQBICkwLAJIC0wKApEh962iIDLWV0ZXawO2L3ER2F7YQgnhglQfwgmZWOpgXeAPTgkkMmJUO5gWTwbRgFI5mpYN5wWgwLXBiolnpYF7gDKYFVng2Kx3MC6zBtKCXwGalg3nBIJgWGJnZrHQwL+gE04IHLGxWOpgXPALTgjsiMysdzAvuwbQyJ6BZfRNCPPV8TcwLMK1cCWhWl/Vm/ar5T1FWF0KIl57vgXllDKaVGXOZlQ7mBb7AtDJhKbPSwbxgKpjWjhOLWelgXjAWTGuHKcrqR2xmpRPIvK7rzfrY8zUhEjCtHacoK2kwHz18S69mpePJvLaqpHXjP4UQC5hWJkwwr6BmpTPSvDCrjMC0MsPBvGY1Kx1L88KsMgTTypQe81rUrHQ6zAuzyhhMK3Na5hWVWeko8zrBrADTAoCkYAsxAEgKTAsAkgLTAoCkwLQAICkwLQBICkwLAJIC0wKApMC0ACApMC0ASApMCwCSAtMCgKT4hZ/LD61ljT/FPPEY5qMoqz2lCcEy0P5gwvREetZgj3rVBAhHy6yeaTdhDXsPYFojcdgwAvPKhB6z0sG8JoBpOTJhdxvMa0dxMCsdzGsEmJYlHrfiwrx2hAlmpYN5OYBpDRBw38DTerO+8J5gmIWirF4LId57vhfmZQGm1UGsm5xCXLDp7PxgWhqYFYwB85oPTEuBWY1ndX67L4R4pV5Pey4kH0L5cF9szw528kHEvMKTvWlhVuNYnd/KuH0aMKkh7h7GXTQwzCsc2ZoWZjUOZVa+4yb3MdzHvKzJ2ryyMy3Majyr89sPQog/At7idHt2sJM9qpiXP7IxLcxqGqvz27dCiDcz3Or37dnBpxnuswiY13R23rQwq+mszm/lIMrvM93u2/bsYH+mey0G5jWenTUtzMofq/PbYyHE5xlv+WJ7dnBlcVzyYF7u7JxpYVb+WcC0nm/PDm5mvN/iYF727NwigPVmfaO64n1zqOaaZcfMpZ5vGRqWzGhPAlz6ZhdLWzvdpkXu5Y/V+W2IuXYmcqoaUisYQRa9h5iXH2YwriwMC7OaRlbjtDCv6aiexK+eH7gv27ODw6W+01xgVn7IckQ85jUdZV6y7fBowsX+3J4dvI7lO4UCs/JL1nMPMS9/rM5vT1Rj8nHHfMQv6sG9yKWhHbMKQ/YTpgXmBZ7BrMKCabXAvGAKmNU8YFoGMC9wAbOaF0yrB8wL+sCslgHTsiCAeW2VcWU18nuXKMpKdjr85fkrYVYWYFoOeDAvzGrHKMpKmszHid8Ks3IA0xrBCPPCrHackeaFWY0A05qAhXlhVplhaV6Y1QQwLQ8YzAuzypwO88KsPIBpeaQoK7mG+gVmBQ3KvA7rzXrnpyvNBaYFAEmxc4sAAsBug2kBQFJgWgCQFJgWACQFpgUASYFpAUBSYFoAkBSYFgAkBaYFAEmBaQFAUmBaAJAUv/Bz5UtRVntqueBnMS8DrS1rzEoJmcOE6QzRzEonGvMaWIMd88oUTCsjBsxKZzHzctwwAvPKDEwrAxzNSmc285q4uw3mlQmY1g4z0ax0gpmX5624MK8dB9PaYWLft5F9A2EMmFYGxGZemBVMAdPKiKXNC7MCH2BaGTK3eWFW4BNMK2NCmxdmBSHAtCCUeYUAswJMC/4jYvPCrOAeTAseEZF5YVbwCEwLOlnQvDAr6ATTgkFmNC/MCgbBtMCagOaFWYE1mBY449G8MCtwBtOC0UwwL8wKRoNpwWQczAuzgslgWuCNHvPCrMAbmBZ4p2VemBV4B9MCgKRgCzEASApMCwCSAtMCgKTAtAAgKTAtAEgKTAsAkgLTAoCkwLQAICkwLQBICkwLAJIC0wKApMC0ACApMC0ASApMCwCSAtMCgKTAtAAgKTAtAEgKTAsAkgLTAoCkwLQAICkwLQBICkwLAJIC0wKApMC0ACApMC0ASApMCwCSAtMCgKT4hZ9rPEVZvRJCvNIvUG/Wxwl9DYCkwLSmsS+EOEr5C4if5itN9vOMt7zWjb0oq7dCiDdz3EunKCv5O8r7v3S89qU8r96svxquWU9JtCv1Zl3Meb8lwbQywGBKgw9yJnE5EUL8NeES0uReFmUl//6z3qxf+0sddIFp5cHQw3QjhHhhGYlDIcR7w/tfLO7T8MMh6rI0c+FwvNW9irK66ClZ/S2E+CDjUm/WP9Txe0KIE9UcoJeuv6mSWhvbeIqeUq7LNbIB08qD3/q+pXowr2wioUoVJn7Um7XVNRz56vu6qi3SZFidpSUVo4u2gaqSmvzsk+F46zR3xTRQPJMH09pxVNUQHvKo80T8NAmn6p3JrCA8mFYLlXPKasHTgUO/OVSF+u53qKoVvSWhFl9Uw2/nw6JMSl5TVmeedRx21NNQnEN7142pA6Uoqw+0S8UPpjXcvmHi6ZQG3BH3a5Am9JeqTkgDO27aXFoc70KPZmBk/P8w3OKPoqzk+9cqc6B6FiFZm5ZqXJXd1SvDx9IUTjq6s1+pEpnpvL779Q0teCevaTAhed5rVXpq308a2PeirN7Vm/V9I7D6+23r3CuDiaVUmjpWwyFcuOoznHqzvinK6rkQ4p+OQ2S8PmttTV+U2X0yaQLmI/eS1k2H8fzaJ8x6s75rkHUZW9RjWIMGUm/W0iA/dNzvTVFWP9Qxu8jRyJJjbylJGpf8WVQV/aKnKt3wTPWavm+Z2YMMA+Yh22k8qvRiarv6PVBOajKVrUuJRz0g14aPTEMQwC6mcljDoRycqQZonqohDzbIDKMuyupGldphBnIuaZ2Y3gzRI6QEbcrJx5SOPnU0Ih/vaBvMrKWZphTdfq81RuttR0Ynf9uvcmS9qXoPfsm9ejgXhx7vc9Px/qHtWCtwQx+jJUtWhkxopXqUqS4GhlUeZqCnBDTGzLqqk11mBv4xjvOCecjZtIzVQNUzGAJTO8lvarKuC6ZxRN/onndjYhtUV2bDbzAD2ZqW6m37Zvjoo80o8hGrEkgz3Brev1E9WEP32yvKqmt4huvwBZ/V1aRQcfyhhovUrYZ0qxiqMXYfDR9dknHMQ+5tWscdwx6aMTrXKve8USPMj1WDrNP4LPFfu8ieoT1EXusfdb9LVQJsGnObe77quKc0wcOB3k7T6O+VenA/qc9P1DHf1PViakyWPXRTlqy5H1LSMy7vWce4rB8DMwsaGPowI1m3acmHvd6s95RZmDhSpam/VO76siX4yzFrGMnudSHEc/VQ6LxU9/qsXn+pkdv6Q7ZVQzP2hoZnqGkppmESK3W/9y1Te6pKIK5V1iSQZqx+7ycdMWnzTMWlz7Ckbp5gWPOSe0nrjnqzvluBVFURXnWUpr6p3iN91PoT9b51G4ka2HhXRVMGcdIq7Zj4okp8F+pc1+93rEoZHzq+21aVuowL2mn86Hjgp3YEfLUwkjE8Spf6/e6rg6p6/kq912VSW/UbfFLDInwS4nvvLEVdz7rAIgDAJBjyAABJgWkBQFJgWgCQFJgWACQFpgUASYFpAUBSYFoAkBSYFgAkBaYFAEmBaQFAUmBaAJAUmBYAJAWmBQBJgWkBQFJgWgCQFJgWAKSDEOL/AUTuGM5LzgsAAAAAAElFTkSuQmCC;" vertex="1" parent="1">
          <mxGeometry x="40.01" y="290" width="60.03" height="70" as="geometry" />
        </mxCell>
        <mxCell id="OMmhInObFo5pcyylUP07-8" value="Dev desktop + &lt;br&gt;dotTest IDE plugin" style="sketch=0;pointerEvents=1;shadow=0;dashed=0;html=1;strokeColor=none;fillColor=#005F4B;labelPosition=center;verticalLabelPosition=bottom;verticalAlign=top;align=center;outlineConnect=0;shape=mxgraph.veeam2.laptop;" vertex="1" parent="1">
          <mxGeometry x="100" y="300" width="85.71" height="50" as="geometry" />
        </mxCell>
        <mxCell id="OMmhInObFo5pcyylUP07-11" style="edgeStyle=orthogonalEdgeStyle;rounded=0;orthogonalLoop=1;jettySize=auto;html=1;entryX=0;entryY=0.5;entryDx=0;entryDy=0;fillColor=#d5e8d4;strokeColor=#82b366;strokeWidth=3;" edge="1" parent="1" source="OMmhInObFo5pcyylUP07-9" target="OMmhInObFo5pcyylUP07-4">
          <mxGeometry relative="1" as="geometry">
            <Array as="points">
              <mxPoint x="600" y="325" />
              <mxPoint x="600" y="440" />
            </Array>
          </mxGeometry>
        </mxCell>
        <mxCell id="OMmhInObFo5pcyylUP07-9" value="Build Server +&amp;nbsp;&lt;div&gt;dotTest Automation&lt;/div&gt;" style="sketch=0;aspect=fixed;pointerEvents=1;shadow=0;dashed=0;html=1;strokeColor=none;labelPosition=center;verticalLabelPosition=bottom;verticalAlign=top;align=center;fillColor=#00188D;shape=mxgraph.azure.server" vertex="1" parent="1">
          <mxGeometry x="390" y="310" width="100" height="30" as="geometry" />
        </mxCell>
        <mxCell id="OMmhInObFo5pcyylUP07-10" style="edgeStyle=orthogonalEdgeStyle;rounded=0;orthogonalLoop=1;jettySize=auto;html=1;entryX=0;entryY=0.5;entryDx=0;entryDy=0;fillColor=#dae8fc;strokeColor=#6c8ebf;strokeWidth=3;" edge="1" parent="1" source="OMmhInObFo5pcyylUP07-8" target="OMmhInObFo5pcyylUP07-1">
          <mxGeometry relative="1" as="geometry">
            <mxPoint x="290" y="325" as="targetPoint" />
          </mxGeometry>
        </mxCell>
        <mxCell id="OMmhInObFo5pcyylUP07-15" value="QA" style="rounded=1;whiteSpace=wrap;html=1;labelPosition=center;verticalLabelPosition=top;align=center;verticalAlign=bottom;fillColor=#fff2cc;strokeColor=#d6b656;dashed=1;" vertex="1" parent="1">
          <mxGeometry x="22.909999999999997" y="470" width="517.09" height="170" as="geometry" />
        </mxCell>
        <mxCell id="OMmhInObFo5pcyylUP07-18" value="QA desktop +&lt;div&gt;SOAtest Desktop&lt;/div&gt;" style="sketch=0;pointerEvents=1;shadow=0;dashed=0;html=1;strokeColor=none;fillColor=#005F4B;labelPosition=center;verticalLabelPosition=bottom;verticalAlign=top;align=center;outlineConnect=0;shape=mxgraph.veeam2.laptop;" vertex="1" parent="1">
          <mxGeometry x="100" y="520" width="85.71" height="50" as="geometry" />
        </mxCell>
        <mxCell id="OMmhInObFo5pcyylUP07-25" style="edgeStyle=orthogonalEdgeStyle;rounded=0;orthogonalLoop=1;jettySize=auto;html=1;entryX=0;entryY=0.5;entryDx=0;entryDy=0;fillColor=#d5e8d4;strokeColor=#82b366;strokeWidth=3;" edge="1" parent="1" source="OMmhInObFo5pcyylUP07-19" target="OMmhInObFo5pcyylUP07-4">
          <mxGeometry relative="1" as="geometry">
            <Array as="points">
              <mxPoint x="600" y="545" />
              <mxPoint x="600" y="440" />
            </Array>
          </mxGeometry>
        </mxCell>
        <mxCell id="OMmhInObFo5pcyylUP07-19" value="Test Automation +&amp;nbsp;&lt;div&gt;SOAtest Automation&lt;/div&gt;" style="sketch=0;aspect=fixed;pointerEvents=1;shadow=0;dashed=0;html=1;strokeColor=none;labelPosition=center;verticalLabelPosition=bottom;verticalAlign=top;align=center;fillColor=#00188D;shape=mxgraph.azure.server" vertex="1" parent="1">
          <mxGeometry x="390" y="530" width="100" height="30" as="geometry" />
        </mxCell>
        <mxCell id="OMmhInObFo5pcyylUP07-20" style="edgeStyle=orthogonalEdgeStyle;rounded=0;orthogonalLoop=1;jettySize=auto;html=1;entryX=0;entryY=0.5;entryDx=0;entryDy=0;fillColor=#dae8fc;strokeColor=#6c8ebf;strokeWidth=3;" edge="1" parent="1" source="OMmhInObFo5pcyylUP07-18">
          <mxGeometry relative="1" as="geometry">
            <mxPoint x="329.96999999999997" y="545" as="targetPoint" />
          </mxGeometry>
        </mxCell>
        <mxCell id="OMmhInObFo5pcyylUP07-3" value="" style="shape=image;verticalLabelPosition=bottom;verticalAlign=top;imageAspect=0;aspect=fixed;image=data:image/png,iVBORw0KGgoAAAANSUhEUgAAAS0AAAFfCAYAAAFsDqqyAAAACXBIWXMAAAsSAAALEgHS3X78AAAfZ0lEQVR4nO3dYVLbOrvAcfnO+XxDV1C6gEzpCkpXULoBA/mcmcNZQekKSufmswvZwKErKKyg9GYBhRW0WYHviCvzCkVyJMdKpOT/m2FagmMryuPHsizLRV3XIkX/lWSpKFgHFCxUsgX7q4+VDCazcyHEx+b3+XhYrLrOvmrso8cyQXopmF5DfdSWROYPRcGkYjSt5Y/PskEFG0xm9WAyO+haKPXfF70WTBZK/ffHKoWqq/JPrwXrSv/qfAsVVLAmP4Xmqboqn5b3jS+xzjxm1NzSD7e2vdKnMDoyf6jeCqZyXG/V30vB9AL1Vbi+auy0p/U8IfhDUbBQFCwUBQtFwUJ5FawYTf8Uo+nTSYg62zkzlrnptWTykNT2I06vav3v+u/N/8Xp1bnx+mHIOm0/S2tMtjxVDR02v1sW+6iWO9RfLEbTa+3/QQdlr69SFea72sCdbRm14e/G+460X9+EFG5p/5hlZXvNa01tNrVYjKaXahlZwEJfzjwflTFbV6X1QwqaPR1QsFDEWCgKFoqCheqz7+LQYzFvvaQLvb+irysjxFgoMn8oChZyHUmEXrLp2o0ZeiIifAu2Sh9r6IWHoIJ1JU+UuxTKu2Bdr3nXVbkn3yI6fJ1ryWOq5gYioObWslfqNeeLzB+qryE0NHs2juAPRcFCUbBQFCwUBQvley2pXvJ7v9eRROC1pLb/a9eVWq8TyetOy7bpdS3JVmNCuyoiHM3l5m/qfFIf0OY1mHdpe0y7HGM72r9YdpJhvP+LT6GET+vCrBXzPNG4lqSv7J1x0etBCCEvesnrnMfLTkpo9oSiYKGSjbFUJftNpooKC0SFBaLCAlFhgXrpS+yL7bJGX32TfUkmwlzXgPq8OaAPKe2SnxIow3I+J8Pr/vnv//nf1sGgm/yhpR+Io2Sgra2w0CEU3uvdtl3S1XUXcgNsm97bYY5mwLv5eNh/l7EmdkU1eq2wljbT47j5PrfVWFdFNXrNYS2tcq+757tu1vLa71gb25ocpg8X0oUOulq6nS1M+lErbmsbrk3FEWEblmTDVc7eNJjM9hMoyoJkImwwmclb945tf0upTyylCLNWVmqSqTAVRQttqtR6XEn6gejeCUSFBaLCAlFhgaiwQFRYICosEBUWiAoL1EufvqVf/aquyhPH3x61jQo3/6Zef1dXZecLKfq46lWsfGrkMSz+n7oqLxx/+1BX5bX2+zc1APyXa8S74/UvdVWeWV7/ZBmCv1rF93kuqRX2tq7Kw7ZvVS07l3fIukbdG78/fVD1+622urdqBL6stPey4vUpp9q+1FAr75KyK1jdFqzfiPG2qTj1+7PLXtoH2GumTtM/jDZp2NO6Lc4tkXKjbUNG7vu+u6h7GwmzbPo132VC3itOrw763s6yH7p3AtGsCESFBaLCApHDAhBdAaisAFRWACorAJUVgMoKQGUFoLICUFkBqKwAVFaA5CprMJnt9T0Tc1+SOpG23BVyOh8PLx2Lr13qtyJ/3UBRnJLPWeqZtkkgwQdIvrLm4yGRZXKMcu79aYGrSLJbWTYf5uNhlHsUV0EffAASfAAqKwCVFWCb55W49lgsbJ3bmODVYwVfN2PD+lrv1kWWVlHSwJiodyVbVVlGRTUWbmLvKsZMJfdCiJfN7+u6/9BRUb1Oi9BrznLNUhK7wtZRUWJdu2HMG8/XVVFijTkrSm/nOitKrLGyjjyW6WJtFSXWVVmxehDa7uSIIcasSvoslQ+xk/s6K2ybZlSyPmWiz21sTaN0HRG2VS342BW2deeGZoX1uStuZRdNU0HMz7VB9JQGoLICpDjk6CSl8Q26lGZ827PMZ3o1Hw9PNlSkBSlFlm3i16RmgGPIUQASfACGHAVIfcjRmw0UxYkWfAByVgAqKwCVFYDKCkBlBaCyAlBZAaisAFRWACorAJUVgMoKQGUFoLICUFkBqKwAVFYAKisAlRWgl8qS8yarOZKts2UXo+mF+vv9kvVEfV7sqnqbAl2nzcR9IIT4YXufZV74p9tYbHPGrzLWqq/54nu5d6elILKiftZVeaC/2EShnCJde1lW1Cs5V3wfZYqhr8h6evqA9vrj3Q+OcZ7PnpxZjKb7zYT65vpsk+ur3fWt/pqw3HGhrU+Yy3bRR2TJJ9EdF6PpsVGYhbsfNEfqEc0NPZqu1ICQpvLlhPnfjYp9q/1+r+1mC19OU2F97IYrJ3h5p6gqyBexwuhgbRzosiFGv9R2blSEPTtoqF28t7tXdb3db6ieMXGmVZasvL8diz9FVXOENCt5WTQY+a55rVC7+O9iNE3vpgHZLLC97nhAh/y9iZxmHMNLlaOK5kclepcvbeXRIr13KyV4Fe7mILRnRz/Hbvn4tJPm/S2D/R8TvbaOZw8PMSrJmcz111eqyHU912LVZ03YnmHheG0v1rMuGEUTgHPDAFRWACorAJUVgMoKQGUFoLIC0M5CNOyJiIbgQjQEF6IhuBANwYVoCC5EQ3AhGoIL0RBciIbgQjQEF6Lp/TkX22QwmT0bZm54NR8PW+8q2XVcuLZwPd/E4c18PLzbYHGTRXAZAgOrQRazoM3Vj2SeIp4SgqsfsZ5DlDWCy9Dh0UKvUnzycwpoc7UYTGaXjsnZ5T2/+wRVO4IL0XBYRDQEF6IhuBANwYVouLaYGW36rMdZWFIuPWeLmXA9BT/lICO4EtcSVKbkgiyrw+JgMpPTu8mfu/l4eJ1AkaIJCCrpRV2VyXXoJp25HM9+tUnqebCr2IagaiQbXIPJ7KJlkkurDtcFk7FNQdVIObi6FOxTSk+H9bGNQdWgK2JDtjmoGil3op6GviGnrKVmIZ57Lu7T7kxO8l0RnofHrMexN88r8Fk21jzeMdDPlZBtCzKCK0HbEmQEV8JyDzJGRSRMe1aKb8M/KWSujNgyGYdF9EoGWerDbQTBhZhocyEaggvRcG2xxWAya+sK+LDtY8pWRZvLInBEBkHmQHAZOg71YY4uC9pc/bA+qHrXEVw9mI+HC49uB8G1QA2VDrnc8mJNRcsOba4Wg8lM3vTx1bLELdlqOYIL0XBYRDQEF6IhuBANwYVoCC5EQ3AhGoIL0RBciIbgQjQEF6IhuBANwYVoCC5EQ3AhGoIL0RBciIbgQjQEF6IhuBBNErfzF6OpnNn4x5LFnNNlF6Opz40AP9UMyj7l2RdC/NJe+lZXZesT+IvRVE5pJNd/t6lpvYvR9PGmkboqbzaxfdPGg6sYTe+FEC/Vr5/qqjw3/i4r6q35hakvU59C+/Gh5pblZIV/l3O+N0HoMWFaE1gPqmzv5XqWfGlNWd4JIdb+5Wqf8/HXdW/fJoXM1QSWMANLvbZwC5eZWdqCRQVEoQejDDLXe/QsWFflvhb83/v60orR9Fw9IEu6sX1ubVlZ7nOVFaXruiptd3gnd9f3xm8tK0bTSyHEsfHyl7oqz1reoweA9xeuvtSP6tdbM3D1LKqvt217yw7JzfLGEzNklj1RAXOmzaRzWlflpVpeHob/1Vb1Sf3blP/xUO2oP927TR0mk7lvsRhNXTegCvNZgl2Dq+29xWgqv+TP6tenL9lnm8YhaeHLdAWtbf1aMAZ9xlXqJJakb4o190pbxQshXtVVed9hfU/Z0dJ+u7W8fV87hF/VVfn0CD6P4Aqp5Dd1Vd6J9qnCP9RV+WzaJoKrg5ZMoxd86YOXjMzUti5bYDUOtC9bDwLv4Frlizezu++he1M22qA32kDCaHOY3RPPHjQlK1Dbs38Xo6lQZ3cnzZfrONSaWafr4eeHo4EvG9YHMhs2Aa/KWmvvf5Z5tOB86i5Rba4TvQtE1k0xml74PvjA4ww3qiQy15JG6UL3hOX9Zr+U6UGe+VnepzeyFw41LdtbCEjHZ3i23SXlfHaCsaTvb6FNaJZL4/25+sZEJIiGyz+IhuBCNAQXoiG4EA3BhWgILkRDcCEaggvR0ImKKMhaiILAQhQEFqIgsBAFgYUoCCxEQWAhCgILURBYiILAQhQEFqIgsBAFgYUoCCxEQWAhCgILURBYiILAQhQEFqIgsBAFgYUoCCxEQWAhCgLLw2AyO5Q/yRc0Idyw6jCYzNqmdLyaj4cnS1eywwgsi8FktmxC/0fz8TCJ2YxTRGAZBpOZ+TSJVgSXHW2sRd5BJf4/EDkkWhBYGpWtQrke77LTCKznnA+VQhgCC1EQWIiCwHqu9REs8EdgaebjYZeHH72LVqCMEViLQgJl3jEYtx6BZVCB8sVz2T2PxXYSgWUxHw9lt8OrlkU+0ePejks6HgaTmXwe4T6HPX8EFqLgUIgoCCxEQWAhCgILURBYiILAQhQEFqIgsBAFgZWZYjTdK0bTg9RLTWBlRAaVEOK3vN8x9eAisDKhBVUj6eAisDJgCapGssFFYCWuJagaSQYXoxsS5hFUuld1Vd6n8mnIWIkKDKqfKQWV9FcCZfCmbmeXg+5utnnQXYeg4lAYaskkHbfz8XCr5q3ahqASqQfWYDKTWentsuW2Zfz5tgSVSLmNNZjMznyCSi2b/RnINgWVSLzx/jlk4ZynE9q2oBKpBtYuTSe0jUElEs5YOzGd0LYGlaAfa3O2OahEwoH1J4EyRLPtQSUSDqxtn05oP2DZu4jliCbJwJqPh10qM5vphOqqlJ/vjefix8Voehm5SL1LuY3lW/Eix+mEtj24kg0slbVOfRbNdTqhbQ6upM8K5+OhrMgX8r+ORU5zn6NqW4OL8ViJUIP1XM/uMV3VVZn0lQb6sRKxbZmLwErINgUXgZWYbQkuAitB2xBcNN4TFtigf6MCMglkrIQFZK7TlIJKEFjp8wguGVTJHQoJrAy0BFeSQSUIrHxYgivZoBI03vOjGvQHKQeVILAQC4dCREFgIQoCC1EQWIiCwEIUWU1jtAmDyUye3jd3Zt/Nx8Pr3aqBbuhucFCTkrjmj3iYj4cht3DtHALLYjCZyV7u18uW4/G9brSxDIPJ7NwnqMSWTJ8UC4G16GPIwioQYSCwNB3n2AoKxF1BYD2X7eRtqSGwEAWB9dxWT5+0TgTWc11mEnTd/r/TCCzNfDzs8nSH7CZFWwcCa9GrgGV/dgzGrUdgGVSg+EziJi/rkK0cuKTTYjCZySB7aVni3TY/y6cPBBai4FCIKAgsREFgIQoCC1EQWIiCwEIUBBaiILAQBYGFKAgsREFgIQoCC1EQWIiCwEIUBBaiILAQBYGFKAgsREFgIQoCC1EQWIiCwEIUBBaiILAQBYGFKAgsREFgIQoCC1EQWIiCwEIUBBaiILAQBYGFKAgsREFgIQoCC1EQWIiCwEIUBBaiSOYp9sVouieEkE+If6tekg8/uqir0usJpsVoeqQesvRWe/mbfK2uyqDHkmjrkv7UVXm05C0w6zCFBwgUo6nrCRCNq7oqrQ+pLEbTc8+nnL6pq/LOszzPKqWuyqUPFS9G00O17MaeWKHKcB+6I8Ww8UNhMZreLQkq6djx3j8Bj879UYyml+ElfNyOz+PmvqufjVA75/dUnhKbwqHw6YnxZmYoRtN9IcQvIcQX802qIgfaS59sh81iNL3RDo/HMpDrqrxwFaYYTa8tL3+Wh+WW96RwqFy2c67VRjOWkQk+mH+XKV0GW12VZ8b7Do2KfOFqi9VVKZc91V76vKRY77X/X2nb3Gt5D8+SNmw6Y+05/r+Mfsg5rauy9ZG7dVVeqrbYYzDKQ6KtzWZknn9kZitG0+YwLA/Z+45NvHe8vqAYTQ+07CfLfd7W9itG0xMtcO/V8sk/I3GjjXeVefQgebEsSITRuPZpWIv/ZJzfbe+zrbdtW2Yj3+Jd05g3t2+yrNtr+WVl8K2fvm30UGg5g/otG+Rqr7Zqzr4U7+cx+wSs5kH7/9Nh1NKIv/VZmSVIvqiHbX7TljEDRF/+SpXjm8hECo33N/KMTft9oM7g5P9vVRtJp/9ua2h3YjTan7ahDqNf1a/PGvFN2TwyqCtT3uhBJwPXcmLxoa7KpmwLZ7WWzGU9iVm3jXc3yPaFqpwHy5/fygpryWB9tjWe2kmWNsxT2ZY04pe5Mv9uZNLP4j/tsEaWnbPJ9LzXVfnYMFYN6EujK0FmtGZP178IM5t1YhxeF758tZ1f6v83IU+uN04IDlT3h2muf165s6mMLVQXybE6SenUD7cJyQRWQ6X9x6ygH2LkWZ1K8ddal8HbtnUF0E8g9h1ffuN1yIqNIAx57zujXF/VIXleV+UqWXMtkgssg+zb+le91Fwyudf2Zm/qtN3H0mCV6wrIHk8ZNuQMTZ3YFMVoKttcf2t/GsgdblNne76SHt2gNVqF6kdqPJ2NqR54H1+1Zd5p79cD5Kdat+un8dVzm0I/wfC8NPSM7BxWncSFfhas+uWStdGMpRqpP1z9V8aZ2lMAyLMx7TD5Uh66LGeP+nqerdvo5jjWXm9tOxmH5j2fLgwjw7ZeGvJY155WBldnbRI2nbGabobf6mL0ExVU+pma2Tv9Rvt/c/Z4oa4vPjbI5TrUF6E3jAttG3og2c5KTfqlodZRDMa69f4q2w50Y/ZjyfowTirMdbq6Wk7E6mevK9t0z/udZ4PWldEOjD6wVpbe7T9a0L3yuVTi6J13fY6ncnv00otmeJA6POsjOh6Ma6MLDXjX+ne1510GxquWReaqfWE95Gh9YLYuAt2po4L1TObbVtPbdyei/RD6dLhS22/rOX/XXL9U/+ptutagUk4tr3lfmehbEgP9Gip9H6wyWE1lsb1NDLhryu+zbXmY8y2jOiT+8RmomMKAQ5FaYGF7cDMFoiCwEAWBhSgILERBYCEKAgtREFiIgsBCFAQWoiCwEAWBhSgILERBYCEKAgtREFiIgsBCFAz0A5AVjoYAskLSApAVkhaArJC0AGSFpAUgKyQtAFkhaQHICkkLQFZIWgCyQtICkBWSFoCskLQAZIWkBSArJC0AWSFpAcgKSQtAVkhaALJC0gKQFZIWgKyQtABkhaQFICskLQBZIWkByMpffF3oajCZHQghzoQQh0KIl47V/BRC3AghLubj4T2VjVXxsFYEGUxmMkl9XqHW5kKIk/l4eE3NowuSFrwMJrNLIcRxz7V1Oh8PL/kGEIKkhVaDyWxPCCFP6waRaurnfDw84FuALzrisUzMhCW9HkxmN3wL8EXSgtNgMjuPnLAabweT2QnfBHyQtNDmcI21s85tIWMkLaTiD98EfJC00GadfU30a8ELVw/RajCZ3bcMHO3Lt/l4eMQ3AR+0tLCMHI7wELGWbklYCEFLC17UlcSPPdcWg0sRjKSFIGpowsUKQyHkbTxH8/GQPix0QtJCZ4PJbF8mIHkvoRwk6ljPrRBC3md4OR8PuUKIlZG0AGSFjngAWSFpAcgKSQtAVkhaALJC0gKQFZIWgKyQtABkhaQFICskLQBZ4bmHQETFaLqn5gp7re67PKyr8o46747beIAIjGRlInmtgKQF9GhJsjKRvDogaQE9CExWJpJXAJIWsIIVk5WJ5OWBpAV00HOy0v1UiYu5xxy4eggEIFltHkmrR2oqYjmT5/sla/0mpyxmyuF8kKzSwenhigaTmXwww/GKq/k0Hw/PN/5hsIBklR6SVkc9JSvTl/l4eLaJz4PnSFbpImkFGkxmMpjvV3gazTIP8/FwfxOfDSSrHJC0Ag0msz8RE1aDxLVmJKt8kLQCRHpgqQsPMl0DklV+uHoY5nCN25JXIUlakZCs8kXSShdBHwHJKn8krTDySclv17gt9KgYTa89xtCFkrfe7JOs1oc+rUCDyUxeOXwZeTPf5uPhUeRt7KRiND1QLa2+L6Zc1VV5suv1uw4krQ4Gk9ldhNOLBglrDUhe+SJpdaRu2fna4yof7/Cfj4fc4b9GJK/8kLRWNJjMDlT/U9dTRtmBe0Ky2iySVz5IWj1So+WP1NCIA8sppExQMjldz8dDOtoTRPJKH0kLsCB5pYukBbQgeaWHpAV4IHmlg6QFBCB5bR5JC+iA5LU5PBYf6EA+MaeuSnm1+I0aY9cXpuBegpYW0IMeWl6ndVUyq4cHkhbQow7Ji2QViKQFROCRvEhWHZG0gIgsyYtktSKSFoCscPUQQFZIWgCyQtICkBWSFoCskLQAZIWkBSArPEIMnahZWs/kVNEeU03LGVsv1IytPGoLK2GcFrypRNXHsx+v5uMhMxmgE5IWvER6bBrJC8FIWmg1mMz2hRC/ItbS4xOaOW2ELzri4aROB2MmLKHuyePxafBG0kKb8zXVzsvBZHbGNwEfJC20OVhj7RzyTcAHSQup4BQRXkhaaLPOp2AzNzq8cPUQrSINdTAx9AHeaGmh1Xw8lP1atxFr6QsJCyFoacHLYDKTyetHj7Ulx2cdzsdD+rIQhKSFIGqw6eUKt/J8k/crMpgUXZG0sBLVAjvShiw0yUyeUv5RHezyRul7ahp9IGkByAod8QCyQtICkBWSFoCskLQAZIWkBSArJC0AWSFpAcgKSQtAVkhaALJC0gKQFZIWgKyQtABkhaQFICskLQBZIWkByApJC0BWSFoAskLSApAVkhaArJC0AGSFpAUgKyQtAFkhaQHICkkLQFZIWgCyQtICkBWSFoCskLQAZIWkBSArJC0AWSFpAcgKSQtAVkhaALJC0gKQFZIWgKyQtABkhaQFICskLQBZIWkByMpffF3/UYyme0KIcyHE34FvvZXvq6vyZoVt7wshzoQQJ0KIQYdVyDJc1lV52bUMyxSjqfx8bx2Lfair8jrWtoFGUdf1zldGMZoeCCFuOiYL08+6Kg8CtiuTzOsetmv6VFfleV8rK0ZTua6PSxZ7VVfl/YrbuTPq490qB4McFaOpjIljrei9fpe52/nTQ7Uz/nAkLNl6+aB2xqL5Ua99c6zyyGObB8Vo+kdt15Ww5kKIKyHEqdxxmzKo/8ufTzJBtmzmYzGa1moHWEkxmh55JCyhEn9nxWh6GCmB5+Z4uz5Ov3a6paVaOj8sf7qtq/IwcD0HPqdmlqOoTiahoy6tlWI0laeWnx1/nqvydVmvPG39ZfnTP+p09qXx+lVdlSeh2xHu1txOtbSK0VTW3VfjZVpaml1vablaRUEBUlflnWfCunEkrLlqSXVKLKoMF6ol9sXyZ9mK/KVaMqFsCUOeAl+o/jfTsUqgXSxtpe4A6mCJXW9pufppglpantu6cHTwP9RVud/ztmxH68aLuir/eK5Hdqy/b1tHSx0ubSGpVqf87Acd+xNbt6Hq4dzSGrSRrdyzkFad+uxnnmW/Veu/M9ZxoT7/vmc5TbvX57frHfGqb8kVdDKQL1a9IqeuSv52/HnlzmvHNl0J50tdlUtbQi3JaOEqoU9yc2xj1eBb2GHV6exNxwTQaD3FbTkA+XrTJK8YdbDtSFr/n1DuA470D0KIa5XMvJJNS39T7y06bZtyvd8tf1raslMd7/9a/uRMeI7k792KbCmv907ZkkyuVCtnIYG2XMGVp+z75nscwz6cfYYqiZ6oFtkftVxoIqdPS7Pz47RUAO2p4LpsGYfUeKl2jL+L0bR5TV5JPGkJxj3H6zGPkHeO11tbICqJ2xLWzyUttEPLRY2X8hSwa8d8iJaE1dqSVS2eA8sp9UB9P0/DV1SM2OLDefFEvX4e2k8Kt13viH8ig0u2erRhDe/UEXru8XZ5avRbtjZUYPtyJbM+eI0Vs3Alu9YWodr5/7H86VglhGhUa8mWsD74toZVF4A5hOS1fvGiZV3f5Sly4HePjna+peWiTkkWWkJqBzxxHHGbq3RvjA7XG0f/0JE6bYjBlbRuXdtSHeO2ltgHn857eUVR7eRm/9ZXOWjU7ITukeuK279aa7gvLxzdCfIzvze2J1vg1zHvUthFJK1AKgAfg7BlzNWZPhxAJsBiNH2wJAR5+nQSKahdpyPWbal+N9f4sT52flkHC31EkTkTtKc7sz/N6E64cFyAaDSJrDnt/FZXJUMaVkTSWoHsqylGU9uObjtNOHIMZJWtkD993rdXjKauCwvfbAlStY5cA1P7stBH1CNXS3al+0HbqFPFZwlI1eNRy/2j71VHu9kSRwCSlup87tICUH0pNgsJSAZpMZq+c1whky2Zla8ktlyBE+pK5cJRXnW8295jvXoWUBbbFdPXMTrmW1qyF5GSpLMcKoE+nvK33E1w5hiYCw873REv+1nUke+3uk/v3nfUuOrbsrWcmtHiC1RQv3B07r9VZfgT0nEtdwzVCVy3JKxPLQnRdcQ/WuVUTtWB7f7M0I5536Rj+3yv1XfqfcFD3Rd6FvIeF9Uas9VB6Li8mBdssrOz47Qsswm4/FTja4THcAjv1pIaC3XZ08wSLq1DMVr65HobF9QyePfZKdKSAbg/VV3ta6de/5gHB9WyuWup02+qFawnjUO1TtsFiGeDTB1j+r6pMXvmIFfXaPzWWUBa6utBtRz3tPJ6DRTeNrt+G0/X+bNMcqc67HiKuaeCsa87+x/UQMrWPrKWW316HfDaclP6vK7KPWNZ16BWF+vIddVavl7xgGBLim23R3Vap6mlvlyiDVBO1c6PiNepI/WR+mlrVd2qneKy76thKok1ZThYMhj0VrUsLkM6drWBtKbrZTtVF2p755YLFDe2Fp1KXueOlnDQZIcqCZyoFpWrZX2r+qKufevRc71NCzE4TlTiPXfEYef1bgOSFoCsMCIeQFZIWgCyQtICkBWSFoCskLQAZIWkBSArJC0AWSFpAcgKSQtAVkhaALJC0gKQFZIWgKyQtABkhaQFICskLQBZIWkByIcQ4v8AqqA0nEcQ8RUAAAAASUVORK5CYII=;" vertex="1" parent="1">
          <mxGeometry x="329.97" y="510" width="60.03" height="70" as="geometry" />
        </mxCell>
        <mxCell id="OMmhInObFo5pcyylUP07-23" value="" style="shape=image;verticalLabelPosition=bottom;verticalAlign=top;imageAspect=0;aspect=fixed;image=data:image/png,iVBORw0KGgoAAAANSUhEUgAAAS0AAAFfCAYAAAFsDqqyAAAACXBIWXMAAAsSAAALEgHS3X78AAAfZ0lEQVR4nO3dYVLbOrvAcfnO+XxDV1C6gEzpCkpXULoBA/mcmcNZQekKSufmswvZwKErKKyg9GYBhRW0WYHviCvzCkVyJMdKpOT/m2FagmMryuPHsizLRV3XIkX/lWSpKFgHFCxUsgX7q4+VDCazcyHEx+b3+XhYrLrOvmrso8cyQXopmF5DfdSWROYPRcGkYjSt5Y/PskEFG0xm9WAyO+haKPXfF70WTBZK/ffHKoWqq/JPrwXrSv/qfAsVVLAmP4Xmqboqn5b3jS+xzjxm1NzSD7e2vdKnMDoyf6jeCqZyXG/V30vB9AL1Vbi+auy0p/U8IfhDUbBQFCwUBQtFwUJ5FawYTf8Uo+nTSYg62zkzlrnptWTykNT2I06vav3v+u/N/8Xp1bnx+mHIOm0/S2tMtjxVDR02v1sW+6iWO9RfLEbTa+3/QQdlr69SFea72sCdbRm14e/G+460X9+EFG5p/5hlZXvNa01tNrVYjKaXahlZwEJfzjwflTFbV6X1QwqaPR1QsFDEWCgKFoqCheqz7+LQYzFvvaQLvb+irysjxFgoMn8oChZyHUmEXrLp2o0ZeiIifAu2Sh9r6IWHoIJ1JU+UuxTKu2Bdr3nXVbkn3yI6fJ1ryWOq5gYioObWslfqNeeLzB+qryE0NHs2juAPRcFCUbBQFCwUBQvley2pXvJ7v9eRROC1pLb/a9eVWq8TyetOy7bpdS3JVmNCuyoiHM3l5m/qfFIf0OY1mHdpe0y7HGM72r9YdpJhvP+LT6GET+vCrBXzPNG4lqSv7J1x0etBCCEvesnrnMfLTkpo9oSiYKGSjbFUJftNpooKC0SFBaLCAlFhgXrpS+yL7bJGX32TfUkmwlzXgPq8OaAPKe2SnxIow3I+J8Pr/vnv//nf1sGgm/yhpR+Io2Sgra2w0CEU3uvdtl3S1XUXcgNsm97bYY5mwLv5eNh/l7EmdkU1eq2wljbT47j5PrfVWFdFNXrNYS2tcq+757tu1vLa71gb25ocpg8X0oUOulq6nS1M+lErbmsbrk3FEWEblmTDVc7eNJjM9hMoyoJkImwwmclb945tf0upTyylCLNWVmqSqTAVRQttqtR6XEn6gejeCUSFBaLCAlFhgaiwQFRYICosEBUWiAoL1EufvqVf/aquyhPH3x61jQo3/6Zef1dXZecLKfq46lWsfGrkMSz+n7oqLxx/+1BX5bX2+zc1APyXa8S74/UvdVWeWV7/ZBmCv1rF93kuqRX2tq7Kw7ZvVS07l3fIukbdG78/fVD1+622urdqBL6stPey4vUpp9q+1FAr75KyK1jdFqzfiPG2qTj1+7PLXtoH2GumTtM/jDZp2NO6Lc4tkXKjbUNG7vu+u6h7GwmzbPo132VC3itOrw763s6yH7p3AtGsCESFBaLCApHDAhBdAaisAFRWACorAJUVgMoKQGUFoLICUFkBqKwAVFaA5CprMJnt9T0Tc1+SOpG23BVyOh8PLx2Lr13qtyJ/3UBRnJLPWeqZtkkgwQdIvrLm4yGRZXKMcu79aYGrSLJbWTYf5uNhlHsUV0EffAASfAAqKwCVFWCb55W49lgsbJ3bmODVYwVfN2PD+lrv1kWWVlHSwJiodyVbVVlGRTUWbmLvKsZMJfdCiJfN7+u6/9BRUb1Oi9BrznLNUhK7wtZRUWJdu2HMG8/XVVFijTkrSm/nOitKrLGyjjyW6WJtFSXWVVmxehDa7uSIIcasSvoslQ+xk/s6K2ybZlSyPmWiz21sTaN0HRG2VS342BW2deeGZoX1uStuZRdNU0HMz7VB9JQGoLICpDjk6CSl8Q26lGZ827PMZ3o1Hw9PNlSkBSlFlm3i16RmgGPIUQASfACGHAVIfcjRmw0UxYkWfAByVgAqKwCVFYDKCkBlBaCyAlBZAaisAFRWACorAJUVgMoKQGUFoLICUFkBqKwAVFYAKisAlRWgl8qS8yarOZKts2UXo+mF+vv9kvVEfV7sqnqbAl2nzcR9IIT4YXufZV74p9tYbHPGrzLWqq/54nu5d6elILKiftZVeaC/2EShnCJde1lW1Cs5V3wfZYqhr8h6evqA9vrj3Q+OcZ7PnpxZjKb7zYT65vpsk+ur3fWt/pqw3HGhrU+Yy3bRR2TJJ9EdF6PpsVGYhbsfNEfqEc0NPZqu1ICQpvLlhPnfjYp9q/1+r+1mC19OU2F97IYrJ3h5p6gqyBexwuhgbRzosiFGv9R2blSEPTtoqF28t7tXdb3db6ieMXGmVZasvL8diz9FVXOENCt5WTQY+a55rVC7+O9iNE3vpgHZLLC97nhAh/y9iZxmHMNLlaOK5kclepcvbeXRIr13KyV4Fe7mILRnRz/Hbvn4tJPm/S2D/R8TvbaOZw8PMSrJmcz111eqyHU912LVZ03YnmHheG0v1rMuGEUTgHPDAFRWACorAJUVgMoKQGUFoLIC0M5CNOyJiIbgQjQEF6IhuBANwYVoCC5EQ3AhGoIL0RBciIbgQjQEF6Lp/TkX22QwmT0bZm54NR8PW+8q2XVcuLZwPd/E4c18PLzbYHGTRXAZAgOrQRazoM3Vj2SeIp4SgqsfsZ5DlDWCy9Dh0UKvUnzycwpoc7UYTGaXjsnZ5T2/+wRVO4IL0XBYRDQEF6IhuBANwYVouLaYGW36rMdZWFIuPWeLmXA9BT/lICO4EtcSVKbkgiyrw+JgMpPTu8mfu/l4eJ1AkaIJCCrpRV2VyXXoJp25HM9+tUnqebCr2IagaiQbXIPJ7KJlkkurDtcFk7FNQdVIObi6FOxTSk+H9bGNQdWgK2JDtjmoGil3op6GviGnrKVmIZ57Lu7T7kxO8l0RnofHrMexN88r8Fk21jzeMdDPlZBtCzKCK0HbEmQEV8JyDzJGRSRMe1aKb8M/KWSujNgyGYdF9EoGWerDbQTBhZhocyEaggvRcG2xxWAya+sK+LDtY8pWRZvLInBEBkHmQHAZOg71YY4uC9pc/bA+qHrXEVw9mI+HC49uB8G1QA2VDrnc8mJNRcsOba4Wg8lM3vTx1bLELdlqOYIL0XBYRDQEF6IhuBANwYVoCC5EQ3AhGoIL0RBciIbgQjQEF6IhuBANwYVoCC5EQ3AhGoIL0RBciIbgQjQEF6IhuBBNErfzF6OpnNn4x5LFnNNlF6Opz40AP9UMyj7l2RdC/NJe+lZXZesT+IvRVE5pJNd/t6lpvYvR9PGmkboqbzaxfdPGg6sYTe+FEC/Vr5/qqjw3/i4r6q35hakvU59C+/Gh5pblZIV/l3O+N0HoMWFaE1gPqmzv5XqWfGlNWd4JIdb+5Wqf8/HXdW/fJoXM1QSWMANLvbZwC5eZWdqCRQVEoQejDDLXe/QsWFflvhb83/v60orR9Fw9IEu6sX1ubVlZ7nOVFaXruiptd3gnd9f3xm8tK0bTSyHEsfHyl7oqz1reoweA9xeuvtSP6tdbM3D1LKqvt217yw7JzfLGEzNklj1RAXOmzaRzWlflpVpeHob/1Vb1Sf3blP/xUO2oP927TR0mk7lvsRhNXTegCvNZgl2Dq+29xWgqv+TP6tenL9lnm8YhaeHLdAWtbf1aMAZ9xlXqJJakb4o190pbxQshXtVVed9hfU/Z0dJ+u7W8fV87hF/VVfn0CD6P4Aqp5Dd1Vd6J9qnCP9RV+WzaJoKrg5ZMoxd86YOXjMzUti5bYDUOtC9bDwLv4Frlizezu++he1M22qA32kDCaHOY3RPPHjQlK1Dbs38Xo6lQZ3cnzZfrONSaWafr4eeHo4EvG9YHMhs2Aa/KWmvvf5Z5tOB86i5Rba4TvQtE1k0xml74PvjA4ww3qiQy15JG6UL3hOX9Zr+U6UGe+VnepzeyFw41LdtbCEjHZ3i23SXlfHaCsaTvb6FNaJZL4/25+sZEJIiGyz+IhuBCNAQXoiG4EA3BhWgILkRDcCEaggvR0ImKKMhaiILAQhQEFqIgsBAFgYUoCCxEQWAhCgILURBYiILAQhQEFqIgsBAFgYUoCCxEQWAhCgILURBYiILAQhQEFqIgsBAFgYUoCCxEQWAhCgLLw2AyO5Q/yRc0Idyw6jCYzNqmdLyaj4cnS1eywwgsi8FktmxC/0fz8TCJ2YxTRGAZBpOZ+TSJVgSXHW2sRd5BJf4/EDkkWhBYGpWtQrke77LTCKznnA+VQhgCC1EQWIiCwHqu9REs8EdgaebjYZeHH72LVqCMEViLQgJl3jEYtx6BZVCB8sVz2T2PxXYSgWUxHw9lt8OrlkU+0ePejks6HgaTmXwe4T6HPX8EFqLgUIgoCCxEQWAhCgILURBYiILAQhQEFqIgsBAFgZWZYjTdK0bTg9RLTWBlRAaVEOK3vN8x9eAisDKhBVUj6eAisDJgCapGssFFYCWuJagaSQYXoxsS5hFUuld1Vd6n8mnIWIkKDKqfKQWV9FcCZfCmbmeXg+5utnnQXYeg4lAYaskkHbfz8XCr5q3ahqASqQfWYDKTWentsuW2Zfz5tgSVSLmNNZjMznyCSi2b/RnINgWVSLzx/jlk4ZynE9q2oBKpBtYuTSe0jUElEs5YOzGd0LYGlaAfa3O2OahEwoH1J4EyRLPtQSUSDqxtn05oP2DZu4jliCbJwJqPh10qM5vphOqqlJ/vjefix8Voehm5SL1LuY3lW/Eix+mEtj24kg0slbVOfRbNdTqhbQ6upM8K5+OhrMgX8r+ORU5zn6NqW4OL8ViJUIP1XM/uMV3VVZn0lQb6sRKxbZmLwErINgUXgZWYbQkuAitB2xBcNN4TFtigf6MCMglkrIQFZK7TlIJKEFjp8wguGVTJHQoJrAy0BFeSQSUIrHxYgivZoBI03vOjGvQHKQeVILAQC4dCREFgIQoCC1EQWIiCwEIUWU1jtAmDyUye3jd3Zt/Nx8Pr3aqBbuhucFCTkrjmj3iYj4cht3DtHALLYjCZyV7u18uW4/G9brSxDIPJ7NwnqMSWTJ8UC4G16GPIwioQYSCwNB3n2AoKxF1BYD2X7eRtqSGwEAWB9dxWT5+0TgTWc11mEnTd/r/TCCzNfDzs8nSH7CZFWwcCa9GrgGV/dgzGrUdgGVSg+EziJi/rkK0cuKTTYjCZySB7aVni3TY/y6cPBBai4FCIKAgsREFgIQoCC1EQWIiCwEIUBBaiILAQBYGFKAgsREFgIQoCC1EQWIiCwEIUBBaiILAQBYGFKAgsREFgIQoCC1EQWIiCwEIUBBaiILAQBYGFKAgsREFgIQoCC1EQWIiCwEIUBBaiILAQBYGFKAgsREFgIQoCC1EQWIiCwEIUBBaiSOYp9sVouieEkE+If6tekg8/uqir0usJpsVoeqQesvRWe/mbfK2uyqDHkmjrkv7UVXm05C0w6zCFBwgUo6nrCRCNq7oqrQ+pLEbTc8+nnL6pq/LOszzPKqWuyqUPFS9G00O17MaeWKHKcB+6I8Ww8UNhMZreLQkq6djx3j8Bj879UYyml+ElfNyOz+PmvqufjVA75/dUnhKbwqHw6YnxZmYoRtN9IcQvIcQX802qIgfaS59sh81iNL3RDo/HMpDrqrxwFaYYTa8tL3+Wh+WW96RwqFy2c67VRjOWkQk+mH+XKV0GW12VZ8b7Do2KfOFqi9VVKZc91V76vKRY77X/X2nb3Gt5D8+SNmw6Y+05/r+Mfsg5rauy9ZG7dVVeqrbYYzDKQ6KtzWZknn9kZitG0+YwLA/Z+45NvHe8vqAYTQ+07CfLfd7W9itG0xMtcO/V8sk/I3GjjXeVefQgebEsSITRuPZpWIv/ZJzfbe+zrbdtW2Yj3+Jd05g3t2+yrNtr+WVl8K2fvm30UGg5g/otG+Rqr7Zqzr4U7+cx+wSs5kH7/9Nh1NKIv/VZmSVIvqiHbX7TljEDRF/+SpXjm8hECo33N/KMTft9oM7g5P9vVRtJp/9ua2h3YjTan7ahDqNf1a/PGvFN2TwyqCtT3uhBJwPXcmLxoa7KpmwLZ7WWzGU9iVm3jXc3yPaFqpwHy5/fygpryWB9tjWe2kmWNsxT2ZY04pe5Mv9uZNLP4j/tsEaWnbPJ9LzXVfnYMFYN6EujK0FmtGZP178IM5t1YhxeF758tZ1f6v83IU+uN04IDlT3h2muf165s6mMLVQXybE6SenUD7cJyQRWQ6X9x6ygH2LkWZ1K8ddal8HbtnUF0E8g9h1ffuN1yIqNIAx57zujXF/VIXleV+UqWXMtkgssg+zb+le91Fwyudf2Zm/qtN3H0mCV6wrIHk8ZNuQMTZ3YFMVoKttcf2t/GsgdblNne76SHt2gNVqF6kdqPJ2NqR54H1+1Zd5p79cD5Kdat+un8dVzm0I/wfC8NPSM7BxWncSFfhas+uWStdGMpRqpP1z9V8aZ2lMAyLMx7TD5Uh66LGeP+nqerdvo5jjWXm9tOxmH5j2fLgwjw7ZeGvJY155WBldnbRI2nbGabobf6mL0ExVU+pma2Tv9Rvt/c/Z4oa4vPjbI5TrUF6E3jAttG3og2c5KTfqlodZRDMa69f4q2w50Y/ZjyfowTirMdbq6Wk7E6mevK9t0z/udZ4PWldEOjD6wVpbe7T9a0L3yuVTi6J13fY6ncnv00otmeJA6POsjOh6Ma6MLDXjX+ne1510GxquWReaqfWE95Gh9YLYuAt2po4L1TObbVtPbdyei/RD6dLhS22/rOX/XXL9U/+ptutagUk4tr3lfmehbEgP9Gip9H6wyWE1lsb1NDLhryu+zbXmY8y2jOiT+8RmomMKAQ5FaYGF7cDMFoiCwEAWBhSgILERBYCEKAgtREFiIgsBCFAQWoiCwEAWBhSgILERBYCEKAgtREFiIgsBCFAz0A5AVjoYAskLSApAVkhaArJC0AGSFpAUgKyQtAFkhaQHICkkLQFZIWgCyQtICkBWSFoCskLQAZIWkBSArJC0AWSFpAcgKSQtAVkhaALJC0gKQFZIWgKyQtABkhaQFICskLQBZIWkByMpffF3oajCZHQghzoQQh0KIl47V/BRC3AghLubj4T2VjVXxsFYEGUxmMkl9XqHW5kKIk/l4eE3NowuSFrwMJrNLIcRxz7V1Oh8PL/kGEIKkhVaDyWxPCCFP6waRaurnfDw84FuALzrisUzMhCW9HkxmN3wL8EXSgtNgMjuPnLAabweT2QnfBHyQtNDmcI21s85tIWMkLaTiD98EfJC00GadfU30a8ELVw/RajCZ3bcMHO3Lt/l4eMQ3AR+0tLCMHI7wELGWbklYCEFLC17UlcSPPdcWg0sRjKSFIGpowsUKQyHkbTxH8/GQPix0QtJCZ4PJbF8mIHkvoRwk6ljPrRBC3md4OR8PuUKIlZG0AGSFjngAWSFpAcgKSQtAVkhaALJC0gKQFZIWgKyQtABkhaQFICskLQBZ4bmHQETFaLqn5gp7re67PKyr8o46747beIAIjGRlInmtgKQF9GhJsjKRvDogaQE9CExWJpJXAJIWsIIVk5WJ5OWBpAV00HOy0v1UiYu5xxy4eggEIFltHkmrR2oqYjmT5/sla/0mpyxmyuF8kKzSwenhigaTmXwww/GKq/k0Hw/PN/5hsIBklR6SVkc9JSvTl/l4eLaJz4PnSFbpImkFGkxmMpjvV3gazTIP8/FwfxOfDSSrHJC0Ag0msz8RE1aDxLVmJKt8kLQCRHpgqQsPMl0DklV+uHoY5nCN25JXIUlakZCs8kXSShdBHwHJKn8krTDySclv17gt9KgYTa89xtCFkrfe7JOs1oc+rUCDyUxeOXwZeTPf5uPhUeRt7KRiND1QLa2+L6Zc1VV5suv1uw4krQ4Gk9ldhNOLBglrDUhe+SJpdaRu2fna4yof7/Cfj4fc4b9GJK/8kLRWNJjMDlT/U9dTRtmBe0Ky2iySVz5IWj1So+WP1NCIA8sppExQMjldz8dDOtoTRPJKH0kLsCB5pYukBbQgeaWHpAV4IHmlg6QFBCB5bR5JC+iA5LU5PBYf6EA+MaeuSnm1+I0aY9cXpuBegpYW0IMeWl6ndVUyq4cHkhbQow7Ji2QViKQFROCRvEhWHZG0gIgsyYtktSKSFoCscPUQQFZIWgCyQtICkBWSFoCskLQAZIWkBSArPEIMnahZWs/kVNEeU03LGVsv1IytPGoLK2GcFrypRNXHsx+v5uMhMxmgE5IWvER6bBrJC8FIWmg1mMz2hRC/ItbS4xOaOW2ELzri4aROB2MmLKHuyePxafBG0kKb8zXVzsvBZHbGNwEfJC20OVhj7RzyTcAHSQup4BQRXkhaaLPOp2AzNzq8cPUQrSINdTAx9AHeaGmh1Xw8lP1atxFr6QsJCyFoacHLYDKTyetHj7Ulx2cdzsdD+rIQhKSFIGqw6eUKt/J8k/crMpgUXZG0sBLVAjvShiw0yUyeUv5RHezyRul7ahp9IGkByAod8QCyQtICkBWSFoCskLQAZIWkBSArJC0AWSFpAcgKSQtAVkhaALJC0gKQFZIWgKyQtABkhaQFICskLQBZIWkByApJC0BWSFoAskLSApAVkhaArJC0AGSFpAUgKyQtAFkhaQHICkkLQFZIWgCyQtICkBWSFoCskLQAZIWkBSArJC0AWSFpAcgKSQtAVkhaALJC0gKQFZIWgKyQtABkhaQFICskLQBZIWkByMpffF3/UYyme0KIcyHE34FvvZXvq6vyZoVt7wshzoQQJ0KIQYdVyDJc1lV52bUMyxSjqfx8bx2Lfair8jrWtoFGUdf1zldGMZoeCCFuOiYL08+6Kg8CtiuTzOsetmv6VFfleV8rK0ZTua6PSxZ7VVfl/YrbuTPq490qB4McFaOpjIljrei9fpe52/nTQ7Uz/nAkLNl6+aB2xqL5Ua99c6zyyGObB8Vo+kdt15Ww5kKIKyHEqdxxmzKo/8ufTzJBtmzmYzGa1moHWEkxmh55JCyhEn9nxWh6GCmB5+Z4uz5Ov3a6paVaOj8sf7qtq/IwcD0HPqdmlqOoTiahoy6tlWI0laeWnx1/nqvydVmvPG39ZfnTP+p09qXx+lVdlSeh2xHu1txOtbSK0VTW3VfjZVpaml1vablaRUEBUlflnWfCunEkrLlqSXVKLKoMF6ol9sXyZ9mK/KVaMqFsCUOeAl+o/jfTsUqgXSxtpe4A6mCJXW9pufppglpantu6cHTwP9RVud/ztmxH68aLuir/eK5Hdqy/b1tHSx0ubSGpVqf87Acd+xNbt6Hq4dzSGrSRrdyzkFad+uxnnmW/Veu/M9ZxoT7/vmc5TbvX57frHfGqb8kVdDKQL1a9IqeuSv52/HnlzmvHNl0J50tdlUtbQi3JaOEqoU9yc2xj1eBb2GHV6exNxwTQaD3FbTkA+XrTJK8YdbDtSFr/n1DuA470D0KIa5XMvJJNS39T7y06bZtyvd8tf1raslMd7/9a/uRMeI7k792KbCmv907ZkkyuVCtnIYG2XMGVp+z75nscwz6cfYYqiZ6oFtkftVxoIqdPS7Pz47RUAO2p4LpsGYfUeKl2jL+L0bR5TV5JPGkJxj3H6zGPkHeO11tbICqJ2xLWzyUttEPLRY2X8hSwa8d8iJaE1dqSVS2eA8sp9UB9P0/DV1SM2OLDefFEvX4e2k8Kt13viH8ig0u2erRhDe/UEXru8XZ5avRbtjZUYPtyJbM+eI0Vs3Alu9YWodr5/7H86VglhGhUa8mWsD74toZVF4A5hOS1fvGiZV3f5Sly4HePjna+peWiTkkWWkJqBzxxHHGbq3RvjA7XG0f/0JE6bYjBlbRuXdtSHeO2ltgHn857eUVR7eRm/9ZXOWjU7ITukeuK279aa7gvLxzdCfIzvze2J1vg1zHvUthFJK1AKgAfg7BlzNWZPhxAJsBiNH2wJAR5+nQSKahdpyPWbal+N9f4sT52flkHC31EkTkTtKc7sz/N6E64cFyAaDSJrDnt/FZXJUMaVkTSWoHsqylGU9uObjtNOHIMZJWtkD993rdXjKauCwvfbAlStY5cA1P7stBH1CNXS3al+0HbqFPFZwlI1eNRy/2j71VHu9kSRwCSlup87tICUH0pNgsJSAZpMZq+c1whky2Zla8ktlyBE+pK5cJRXnW8295jvXoWUBbbFdPXMTrmW1qyF5GSpLMcKoE+nvK33E1w5hiYCw873REv+1nUke+3uk/v3nfUuOrbsrWcmtHiC1RQv3B07r9VZfgT0nEtdwzVCVy3JKxPLQnRdcQ/WuVUTtWB7f7M0I5536Rj+3yv1XfqfcFD3Rd6FvIeF9Uas9VB6Li8mBdssrOz47Qsswm4/FTja4THcAjv1pIaC3XZ08wSLq1DMVr65HobF9QyePfZKdKSAbg/VV3ta6de/5gHB9WyuWup02+qFawnjUO1TtsFiGeDTB1j+r6pMXvmIFfXaPzWWUBa6utBtRz3tPJ6DRTeNrt+G0/X+bNMcqc67HiKuaeCsa87+x/UQMrWPrKWW316HfDaclP6vK7KPWNZ16BWF+vIddVavl7xgGBLim23R3Vap6mlvlyiDVBO1c6PiNepI/WR+mlrVd2qneKy76thKok1ZThYMhj0VrUsLkM6drWBtKbrZTtVF2p755YLFDe2Fp1KXueOlnDQZIcqCZyoFpWrZX2r+qKufevRc71NCzE4TlTiPXfEYef1bgOSFoCsMCIeQFZIWgCyQtICkBWSFoCskLQAZIWkBSArJC0AWSFpAcgKSQtAVkhaALJC0gKQFZIWgKyQtABkhaQFICskLQBZIWkByIcQ4v8AqqA0nEcQ8RUAAAAASUVORK5CYII=;" vertex="1" parent="1">
          <mxGeometry x="39.97" y="510" width="60.03" height="70" as="geometry" />
        </mxCell>
        <mxCell id="OMmhInObFo5pcyylUP07-27" value="Promote to build" style="text;html=1;align=center;verticalAlign=middle;whiteSpace=wrap;rounded=0;" vertex="1" parent="1">
          <mxGeometry x="230" y="290" width="60" height="30" as="geometry" />
        </mxCell>
        <mxCell id="OMmhInObFo5pcyylUP07-28" value="Promote to test automation" style="text;html=1;align=center;verticalAlign=middle;whiteSpace=wrap;rounded=0;" vertex="1" parent="1">
          <mxGeometry x="215" y="510" width="90" height="30" as="geometry" />
        </mxCell>
        <mxCell id="OMmhInObFo5pcyylUP07-29" value="Publish Scan/Test Results" style="text;html=1;align=center;verticalAlign=middle;whiteSpace=wrap;rounded=0;" vertex="1" parent="1">
          <mxGeometry x="630" y="380" width="60" height="50" as="geometry" />
        </mxCell>
        <mxCell id="OMmhInObFo5pcyylUP07-30" value="Feedback" style="text;html=1;align=center;verticalAlign=middle;whiteSpace=wrap;rounded=0;" vertex="1" parent="1">
          <mxGeometry x="430" y="150" width="60" height="50" as="geometry" />
        </mxCell>
      </root>
    </mxGraphModel>
  </diagram>
</mxfile>
